<svg xmlns="http://www.w3.org/2000/svg" xmlns:xlink="http://www.w3.org/1999/xlink" width="1080" zoomAndPan="magnify" viewBox="0 0 810 809.999993" height="1080" preserveAspectRatio="xMidYMid meet" version="1.0"><defs><clipPath id="7a399da68c"><path d="M 3 118.125 L 809 118.125 L 809 678 L 3 678 Z M 3 118.125 " clip-rule="nonzero"/></clipPath></defs><g clip-path="url(#7a399da68c)"><path fill="#1e3f48" d="M 805.167969 463.507812 C 800.457031 459.96875 795.734375 456.480469 790.007812 454.671875 C 788.136719 454.082031 786.253906 453.667969 786.722656 450.679688 C 787.875 443.261719 788.511719 435.765625 789.617188 428.34375 C 791.707031 414.300781 794.421875 400.332031 794.941406 386.101562 C 795.148438 380.511719 792.703125 376.5 787.269531 374.417969 C 782.359375 372.535156 777.476562 370.660156 772.328125 369.421875 C 761.371094 366.78125 750.367188 364.542969 737.613281 364.351562 C 746.925781 354.445312 755.058594 345.460938 763.578125 336.855469 C 769.007812 331.371094 775.007812 326.445312 779.496094 320.078125 C 782.277344 316.125 781.824219 313.105469 777.121094 310.863281 C 769.238281 307.109375 761.09375 304.085938 752.847656 301.265625 C 730.902344 293.757812 708.167969 290 685.339844 286.519531 C 671.527344 284.410156 657.871094 281.460938 643.875 280.460938 C 613.550781 278.292969 583.992188 284.558594 554.332031 288.800781 C 536.003906 291.425781 517.828125 296.027344 500.46875 303 C 495.289062 305.078125 491.464844 305.082031 488.121094 299.386719 C 480.695312 286.726562 470.574219 276.003906 461.234375 264.777344 C 458.234375 261.171875 457.96875 258.660156 459.703125 254.683594 C 464.726562 243.179688 469.847656 231.683594 474.042969 219.871094 C 477.9375 208.917969 475.632812 200.199219 468.109375 196.714844 C 445.1875 186.089844 422.667969 174.488281 397.9375 168.203125 C 388.308594 165.753906 380.769531 167.640625 375.09375 175.878906 C 373.855469 177.671875 372.835938 178.527344 370.84375 176.785156 C 358.742188 166.203125 343.660156 160.804688 329.660156 153.601562 C 319.0625 148.148438 308.816406 141.90625 297.542969 137.761719 C 280.3125 131.425781 263.242188 124.707031 245.484375 119.792969 C 239.386719 118.105469 236.1875 118.578125 232.378906 123.738281 C 207.644531 157.214844 182.140625 190.113281 156.769531 223.109375 C 140.574219 244.175781 125.882812 266.308594 109.011719 286.976562 C 81.292969 320.933594 53.695312 355.054688 27.742188 390.433594 C 23.386719 396.363281 20.890625 402.355469 22.753906 409.644531 C 24.539062 416.625 22.519531 422.351562 17.503906 427.320312 C 13.148438 431.636719 9.476562 436.53125 6.726562 442.007812 C 0.585938 454.226562 1.40625 460.03125 15.589844 467.890625 C 16.992188 468.667969 18.570312 469.128906 20.054688 469.761719 C 32.539062 475.089844 46.261719 477.542969 58.179688 483.667969 C 73.046875 491.304688 88.210938 497.867188 103.945312 503.195312 C 125.066406 510.351562 144.632812 521.324219 166.027344 527.863281 C 186.898438 534.246094 208.164062 539.425781 227.921875 549.277344 C 253.332031 561.945312 281.449219 567.804688 307.128906 579.921875 C 310.382812 581.457031 314 582.253906 317.488281 583.242188 C 336.925781 588.753906 356.796875 593.070312 375.695312 600.023438 C 393.789062 606.679688 412.15625 612.257812 430.628906 617.40625 C 456.535156 624.628906 482.835938 630.292969 508.21875 639.492188 C 538.433594 650.449219 570.511719 655.625 600.066406 668.796875 C 606.316406 671.582031 612.9375 673.761719 619.59375 675.367188 C 635.808594 679.285156 639.152344 677.882812 645.078125 669.839844 C 652.058594 660.367188 659.109375 650.933594 666.515625 641.796875 C 679.316406 626 693.402344 611.304688 706.152344 595.449219 C 719.90625 578.347656 733.242188 560.910156 748.558594 545.082031 C 769.964844 522.964844 786.9375 497.195312 806.398438 473.464844 C 809.375 469.835938 809.03125 466.410156 805.167969 463.507812 Z M 805.167969 463.507812 " fill-opacity="1" fill-rule="nonzero"/></g><path fill="#fef4e6" d="M 423.792969 221.367188 C 423.253906 225.449219 423.632812 228.390625 430.5 227.113281 C 435.40625 226.199219 438.070312 231.28125 439.542969 235.503906 C 441.039062 239.800781 438.492188 242.457031 434.441406 243.632812 C 429.234375 245.144531 427.238281 247.15625 431.183594 252.53125 C 434.355469 256.855469 431.867188 261.417969 429.078125 265.371094 C 426.589844 268.902344 423.949219 272.855469 418.957031 271.605469 C 413.820312 270.316406 412.132812 272.628906 410.734375 276.90625 C 407.851562 285.746094 402.769531 289.253906 395.75 287.8125 C 389.859375 286.605469 387.664062 283.25 388.835938 277.257812 C 390.039062 271.121094 389.628906 270.714844 383.382812 271.894531 C 377.28125 273.046875 373.125 270.453125 370.882812 264.097656 C 369.117188 259.074219 370.988281 253.800781 376.878906 252.039062 C 384.589844 249.738281 382.367188 246.707031 379.179688 242.269531 C 374.5 235.757812 375.046875 229.28125 380.261719 222.789062 C 385.648438 216.082031 389.433594 215.808594 395.78125 221.605469 C 397.246094 222.941406 398.4375 225.574219 400.375 225.160156 C 402.9375 224.609375 401.539062 221.695312 401.9375 219.851562 C 404.324219 208.757812 411.214844 205.453125 420.203125 210.890625 C 424.140625 213.273438 423.984375 216.742188 423.792969 221.367188 Z M 391.972656 252.128906 C 391.976562 260.304688 396.027344 264.789062 403.320312 264.699219 C 411.289062 264.597656 420.078125 255.644531 420.117188 247.589844 C 420.148438 240.90625 411.273438 233.09375 403.851562 233.277344 C 397.757812 233.425781 391.964844 242.621094 391.972656 252.128906 Z M 347.765625 307.21875 C 335.726562 322.6875 333.621094 347.324219 343.277344 363.285156 C 347.707031 344.171875 351.601562 326.449219 347.765625 307.21875 Z M 373.421875 385.128906 C 389.945312 375.96875 397.046875 367.105469 400.496094 350.941406 C 387.703125 360.015625 377.960938 370.070312 373.421875 385.128906 Z M 373.421875 385.128906 " fill-opacity="1" fill-rule="nonzero"/><path fill="#f5895d" d="M 468.921875 211.480469 C 468.921875 215.199219 467.964844 218.703125 466.480469 222.070312 C 441.644531 278.417969 418.746094 335.488281 400.453125 394.359375 C 395.480469 410.355469 390.035156 426.277344 382.421875 441.359375 C 379.574219 447 376.429688 448.726562 370.117188 447.175781 C 357.3125 444.03125 344.933594 439.511719 332.605469 435.121094 C 319.785156 430.550781 306.777344 426.917969 293.632812 423.699219 C 287.699219 422.242188 285.515625 419.8125 286.976562 413.644531 C 289.738281 402.003906 292.761719 390.535156 297.804688 379.582031 C 301.691406 371.144531 304.714844 362.296875 307.925781 353.5625 C 320.996094 318.003906 335.210938 282.933594 351.121094 248.535156 C 355.527344 239.007812 359.191406 229.082031 362.492188 219.105469 C 366.839844 205.984375 373.339844 193.828125 378.664062 181.152344 C 382.402344 172.261719 386.996094 170.601562 396.09375 173.160156 C 419.988281 179.878906 441.855469 191.519531 464.53125 201.1875 C 468.078125 202.695312 469.078125 205.488281 468.921875 211.480469 Z M 445.300781 237.644531 C 444.726562 232.183594 442.332031 227.183594 437.90625 224.820312 C 432.109375 221.722656 428.101562 218.332031 427.574219 211.441406 C 427.402344 209.175781 425.101562 207.847656 423.164062 206.671875 C 411.886719 199.835938 404.863281 201.957031 398.886719 214.152344 C 397.941406 216.082031 397.589844 216.800781 395.332031 215.273438 C 392.585938 213.417969 389.539062 211.648438 385.734375 213.035156 C 376.613281 216.355469 366.15625 231.378906 374.015625 242.972656 C 376.453125 246.566406 375.449219 247.539062 372.375 249.613281 C 362.515625 256.253906 363.523438 271.65625 374.636719 275.453125 C 380.628906 277.5 383.246094 279.539062 385.171875 285.710938 C 386.574219 290.191406 388.136719 293.304688 385.148438 297.433594 C 384.035156 298.972656 383.773438 301.195312 383.359375 303.160156 C 381.078125 313.964844 376.878906 323.992188 371.269531 333.460938 C 368.675781 337.839844 366.945312 342.582031 365.101562 347.300781 C 359.613281 361.359375 356.957031 375.992188 355.257812 390.933594 C 354.066406 401.414062 349.363281 411.042969 346.351562 421.09375 C 345.824219 422.84375 344.636719 424.796875 347.058594 425.679688 C 349.296875 426.496094 350.273438 424.582031 350.851562 422.746094 C 354.121094 412.363281 358.972656 402.457031 360.375 391.515625 C 362.257812 376.832031 364.601562 362.191406 370.53125 348.554688 C 377.761719 331.921875 387.066406 316.140625 390.394531 297.972656 C 390.605469 296.8125 391.527344 295.796875 391.828125 294.636719 C 392.324219 292.734375 393.644531 292.804688 395.128906 292.882812 C 405.003906 293.382812 411.234375 289.726562 414.808594 280.691406 C 415.84375 278.074219 416.621094 276.890625 419.730469 276.800781 C 430.667969 276.484375 440.074219 262.839844 436.539062 252.199219 C 435.550781 249.222656 436.09375 248.523438 438.597656 247.546875 C 443.054688 245.8125 444.882812 242.082031 445.300781 237.644531 Z M 354.222656 322.996094 C 354.917969 315.765625 354.0625 308.824219 350.582031 302.375 C 349.746094 300.828125 349.175781 298.8125 346.851562 298.941406 C 344.671875 299.066406 343.984375 300.882812 343.15625 302.507812 C 338.945312 310.777344 335.15625 319.292969 332.621094 328.179688 C 328.9375 341.097656 332.761719 353.246094 338.21875 364.925781 C 339.128906 366.875 340.757812 368.851562 343.417969 368.367188 C 345.796875 367.9375 346.179688 365.644531 346.851562 363.789062 C 351.613281 350.597656 353.96875 336.964844 354.222656 322.996094 Z M 368.941406 392.808594 C 392.535156 382.828125 402.945312 369.621094 407.054688 348.820312 C 407.445312 346.84375 407.554688 345.277344 405.992188 343.863281 C 404.078125 342.128906 402.566406 343.648438 401.089844 344.53125 C 389.890625 351.222656 380.800781 360.136719 374.28125 371.414062 C 370.550781 377.859375 368.394531 384.914062 368.941406 392.808594 Z M 430.261719 443.890625 C 447.472656 440.296875 464.058594 434.410156 481 429.828125 C 485.625 428.578125 490.753906 427.082031 493.726562 423.113281 C 505.027344 408.023438 516.328125 392.910156 526.128906 376.753906 C 528.28125 373.203125 527.050781 372.355469 523.378906 372.046875 C 516.773438 371.492188 510.566406 373.316406 504.277344 374.625 C 483.050781 379.039062 464.429688 387.53125 452.566406 407.066406 C 449.425781 412.234375 445.203125 416.746094 441.472656 421.554688 C 436.039062 428.554688 429.792969 434.992188 425.824219 444.171875 C 427.878906 444.050781 429.101562 444.132812 430.261719 443.890625 Z M 404.957031 240.144531 C 400.328125 239.976562 397.082031 244.714844 397.117188 252.050781 C 397.140625 256.089844 398.691406 259.140625 403.449219 259.132812 C 408.476562 259.121094 413.941406 253.246094 414.015625 247.769531 C 414.074219 243.363281 410.496094 240.351562 404.957031 240.144531 Z M 404.957031 240.144531 " fill-opacity="1" fill-rule="nonzero"/><path fill="#751133" d="M 23.042969 429.742188 C 23.175781 431.675781 23.425781 432.644531 23.273438 433.546875 C 21.308594 445.101562 26.9375 450.890625 37.429688 454.710938 C 74.84375 468.339844 112.179688 482.199219 149.28125 496.644531 C 184.351562 510.296875 219.523438 523.804688 253.222656 540.675781 C 267.914062 548.03125 283.734375 552.464844 298.664062 559.328125 C 307.050781 563.183594 317.8125 562.367188 327.316406 565.058594 C 357.15625 573.515625 387.96875 577.257812 418.300781 583.320312 C 478.054688 595.269531 536.347656 611.882812 592.261719 636.378906 C 601.316406 640.347656 609.527344 646.078125 619.355469 648.511719 C 623.769531 649.605469 627.054688 649.660156 630.25 646.140625 C 643.085938 632.003906 655.296875 617.335938 667.648438 602.777344 C 689.203125 577.359375 711.363281 552.453125 733.320312 527.378906 C 744.835938 514.226562 756.277344 501 769.226562 489.179688 C 777.167969 481.925781 783.105469 473.324219 785.265625 462.597656 C 786 458.949219 787.667969 459.136719 790.179688 460.523438 C 790.535156 460.71875 790.886719 460.925781 791.25 461.101562 C 803.449219 467.039062 803.417969 467.378906 795.003906 477.660156 C 779.816406 496.214844 766.792969 516.527344 750.253906 533.96875 C 719.019531 566.90625 692.609375 603.925781 662.160156 637.53125 C 654.292969 646.210938 647.789062 656.148438 640.867188 665.65625 C 636.914062 671.089844 631.5625 673.148438 623.574219 670.566406 C 612.804688 667.082031 601.976562 663.578125 591.617188 659.066406 C 569.761719 649.546875 546.050781 646.167969 523.859375 638.078125 C 482.5 623.007812 439 615.382812 397.527344 601.105469 C 369.367188 591.410156 340.414062 584.601562 312.316406 574.988281 C 288.238281 566.753906 264.234375 558.054688 240.945312 547.859375 C 217.3125 537.515625 193.210938 528.902344 168.449219 521.90625 C 148.089844 516.152344 129.671875 505.535156 109.800781 498.5 C 93.023438 492.566406 76.210938 486.71875 60.753906 477.445312 C 55.015625 474 47.835938 472.90625 41.257812 470.925781 C 31.914062 468.117188 23.078125 464.09375 14.296875 459.941406 C 9.625 457.734375 7.675781 454.625 9.738281 449.1875 C 12.519531 441.847656 17.15625 436.015625 23.042969 429.742188 Z M 23.042969 429.742188 " fill-opacity="1" fill-rule="nonzero"/><path fill="#e3d8d6" d="M 279.441406 417.074219 C 268.097656 409.640625 257.746094 401.464844 246.570312 394.472656 C 207.964844 370.3125 167.796875 349.386719 124.664062 334.449219 C 122.757812 333.789062 120.757812 333.402344 118.835938 332.785156 C 116.917969 332.167969 114.542969 330.816406 113.566406 333.453125 C 112.335938 336.78125 115.824219 336.738281 117.589844 337.472656 C 132.164062 343.519531 147.136719 348.714844 161.347656 355.511719 C 197.972656 373.03125 233.992188 391.726562 266.726562 416.078125 C 277.324219 423.964844 287.941406 431.832031 298.636719 439.585938 C 309.28125 447.304688 318.132812 456.738281 325.855469 467.304688 C 326.210938 467.796875 326.460938 468.371094 326.84375 468.835938 C 328.351562 470.664062 330.242188 472.363281 332.503906 470.605469 C 334.539062 469.019531 333.25 466.988281 332.082031 465.210938 C 325.992188 455.996094 318.585938 447.941406 310.382812 440.605469 C 307.859375 438.347656 305.167969 436.277344 302.839844 433.539062 C 328.214844 438.25 351.242188 450.839844 377.511719 454.570312 C 353.082031 485.621094 328.441406 516.011719 303.882812 545.578125 C 283.417969 518.355469 258.402344 495.871094 228.691406 477.816406 C 194.988281 457.332031 158.109375 444.25 121.996094 429.5625 C 91.910156 417.328125 60.382812 408.636719 28.710938 398.113281 C 33.546875 391.84375 38.542969 385.78125 43.089844 379.402344 C 65.617188 347.78125 90.9375 318.34375 115.273438 288.175781 C 131.640625 267.886719 145.808594 246.132812 161.613281 225.523438 C 186.570312 192.980469 211.9375 160.75 235.667969 127.289062 C 237.933594 124.09375 239.632812 123.710938 243.347656 124.6875 C 261.160156 129.382812 278.214844 136.15625 295.375 142.691406 C 305.089844 146.390625 313.988281 151.675781 323.164062 156.378906 C 337.917969 163.949219 353.570312 169.820312 367.0625 179.867188 C 370.621094 182.515625 371.089844 184.339844 369.152344 188.078125 C 363.609375 198.785156 358.660156 209.789062 355.15625 221.523438 C 322.804688 195.539062 286.316406 179.199219 248.617188 165.230469 C 246.789062 164.554688 243.394531 160.976562 242.097656 164.890625 C 240.964844 168.316406 245.25 168.859375 247.738281 169.925781 C 267.082031 178.207031 286.523438 186.292969 305.03125 196.367188 C 318.757812 203.839844 332.546875 211.265625 344.785156 221.140625 C 352.414062 227.300781 352.382812 227.351562 349.175781 236.21875 C 344.753906 248.441406 338.707031 259.945312 333.5 271.820312 C 332.089844 275.046875 331.140625 275.605469 328.25 273.054688 C 318.175781 264.179688 307.167969 256.476562 296.425781 248.441406 C 273.933594 231.613281 248.320312 220.78125 222.835938 209.667969 C 220.277344 208.550781 217.597656 207.703125 215.398438 205.707031 C 213.773438 204.234375 211.46875 204.140625 210.210938 206.398438 C 209.066406 208.460938 210.539062 209.953125 212.253906 210.789062 C 218.433594 213.816406 224.5625 217.003906 230.929688 219.589844 C 265.542969 233.640625 296.039062 254.257812 324.726562 277.835938 C 327.734375 280.308594 328.964844 282.511719 327.210938 286.535156 C 322.433594 297.484375 318.054688 308.617188 313.671875 319.734375 C 312.339844 323.109375 311.292969 323.144531 308.214844 321.085938 C 277.53125 300.535156 247.714844 278.597656 214.792969 261.574219 C 205.253906 256.644531 195.574219 252.019531 184.964844 249.707031 C 182.792969 249.234375 180.585938 248.671875 179.894531 251.152344 C 179.164062 253.777344 181.601562 254.367188 183.605469 254.929688 C 197.785156 258.894531 210.605469 265.835938 223.273438 273.101562 C 250.960938 288.980469 276.628906 307.957031 303.394531 325.25 C 307.761719 328.074219 309.316406 330.523438 306.964844 335.851562 C 303.050781 344.726562 300.039062 354.015625 296.921875 363.222656 C 295.800781 366.542969 294.753906 366.257812 292.359375 364.402344 C 252.976562 333.894531 208.628906 312.851562 161.980469 296.214844 C 157.738281 294.703125 153.429688 293.710938 148.898438 293.898438 C 147.441406 293.957031 145.8125 293.980469 145.570312 295.792969 C 145.289062 297.867188 146.882812 298.398438 148.570312 298.882812 C 185.78125 309.5 220.796875 325.140625 253.523438 345.726562 C 265.882812 353.5 278.71875 360.644531 289.867188 370.234375 C 291.398438 371.546875 293.835938 372.292969 292.222656 375.484375 C 285.6875 388.421875 282.402344 402.433594 279.441406 417.074219 Z M 89.53125 368.691406 C 88.234375 368.546875 86.902344 368.855469 86.757812 370.300781 C 86.558594 372.25 87.871094 373.027344 89.71875 373.421875 C 95.644531 374.691406 101.632812 375.804688 107.429688 377.539062 C 154.089844 391.535156 195.863281 415.6875 237.21875 440.574219 C 263.253906 456.246094 287.863281 473.832031 307.203125 497.789062 C 308.546875 499.449219 310.289062 501.71875 312.703125 499.414062 C 314.992188 497.230469 312.957031 495.242188 311.597656 493.609375 C 302.613281 482.796875 293.050781 472.464844 282.082031 463.695312 C 262.53125 448.058594 240.535156 436.140625 219.375 422.902344 C 186.113281 402.089844 150.945312 386.023438 113.835938 373.761719 C 105.890625 371.132812 97.796875 369.648438 89.53125 368.691406 Z M 315.324219 542.183594 C 327.480469 525.910156 340.898438 510.644531 353.542969 494.753906 C 385.808594 454.21875 416.914062 412.8125 447.976562 371.367188 C 461.738281 353.007812 475.484375 334.632812 489.160156 316.210938 C 491.914062 312.503906 495.285156 310.175781 499.730469 308.652344 C 517.574219 302.546875 535.820312 297.4375 554.355469 294.917969 C 583.828125 290.914062 613.171875 284.457031 643.273438 286.640625 C 657.070312 287.644531 670.539062 290.582031 684.140625 292.773438 C 706.546875 296.386719 728.960938 299.886719 750.496094 307.394531 C 756.804688 309.59375 762.996094 312.121094 769.308594 314.308594 C 773.835938 315.875 774.945312 317.390625 770.917969 321.324219 C 762.355469 329.699219 753.582031 337.84375 745.21875 346.457031 C 719.617188 372.820312 696.054688 400.957031 672.3125 428.917969 C 656.683594 447.328125 639.585938 464.558594 625.898438 484.5625 C 616.5 498.296875 607.828125 512.515625 597.253906 525.445312 C 595.066406 528.121094 593.148438 528.898438 590.148438 528.066406 C 574.175781 523.621094 557.710938 523.46875 541.34375 522.175781 C 527.578125 521.089844 513.808594 519.273438 500.027344 519.535156 C 473.25 520.042969 446.417969 518.089844 419.6875 521.800781 C 405.238281 523.804688 390.515625 523.773438 376.15625 526.664062 C 355.882812 530.746094 336.351562 537.554688 316.523438 543.257812 C 316.121094 542.902344 315.722656 542.542969 315.324219 542.183594 Z M 425.601562 450.460938 C 427.644531 450.308594 428.878906 450.324219 430.070312 450.109375 C 448.207031 446.808594 465.695312 441.039062 483.339844 435.902344 C 489.105469 434.222656 495.207031 432.1875 498.992188 427.03125 C 510.773438 411 523.058594 395.296875 532.761719 377.84375 C 536.738281 370.695312 535.589844 368.984375 527.820312 367.132812 C 518.039062 364.808594 508.902344 368.121094 499.679688 369.863281 C 482.777344 373.066406 466.761719 378.183594 456.265625 393.625 C 451.601562 400.488281 445.867188 406.625 440.679688 413.136719 C 432.96875 422.8125 424.796875 432.128906 418.855469 443.136719 C 416.703125 447.125 414.792969 449.929688 421.707031 449.574219 C 423.238281 449.5 424.804688 450.265625 425.601562 450.460938 Z M 605.875 350.085938 C 632.9375 351.324219 660.199219 351.523438 686.066406 361.511719 C 688.640625 362.507812 691.785156 363.480469 692.746094 360.105469 C 693.621094 357.03125 690.179688 356.625 688.015625 355.726562 C 663.710938 345.632812 637.792969 344.644531 612.164062 343.546875 C 589.917969 342.59375 567.554688 342.976562 545.265625 345.207031 C 531.121094 346.621094 516.933594 347.503906 503.242188 351.5 C 494.722656 353.988281 486.398438 357.175781 478.050781 360.21875 C 476.675781 360.71875 474.675781 361.761719 475.433594 363.71875 C 476.171875 365.636719 478.199219 364.84375 479.730469 364.628906 C 480.511719 364.519531 481.222656 363.988281 481.996094 363.765625 C 497.539062 359.28125 512.925781 353.722656 529.183594 352.75 C 554.699219 351.222656 580.160156 347.484375 605.875 350.085938 Z M 608.359375 316.042969 C 594.578125 314.917969 582.765625 319.625 570.5 320.722656 C 547.285156 322.800781 524.570312 327.820312 501.707031 331.960938 C 499.992188 332.269531 496.90625 332.480469 497.398438 335.117188 C 497.886719 337.757812 500.804688 336.914062 502.617188 336.625 C 522.390625 333.503906 542.011719 329.390625 561.992188 327.675781 C 574.71875 326.582031 587.164062 322.570312 599.820312 322.375 C 619.421875 322.074219 639.050781 319.425781 658.730469 323.167969 C 673.191406 325.917969 688.265625 325.066406 702.398438 330.253906 C 704.824219 331.140625 707.558594 331.28125 710.171875 331.550781 C 712.539062 331.792969 715.886719 332.277344 716.398438 329.535156 C 716.90625 326.828125 713.867188 325.90625 711.355469 325.433594 C 708.769531 324.949219 706.195312 324.410156 703.648438 323.761719 C 677.96875 317.214844 651.789062 314.953125 625.382812 314.914062 C 619.308594 314.90625 613.230469 315.703125 608.359375 316.042969 Z M 538.441406 460.164062 C 556.214844 459.976562 572.210938 463.238281 587.242188 469.714844 C 590.949219 471.3125 594.710938 472.964844 598.855469 472.816406 C 600.417969 472.761719 602.226562 472.214844 602.667969 470.3125 C 603.050781 468.671875 602.1875 467.59375 600.492188 467.335938 C 591.757812 466.015625 584.300781 461.128906 575.9375 458.636719 C 547.386719 450.117188 518.132812 453.921875 489.367188 454.730469 C 457.046875 455.640625 425.125 462.328125 393.816406 470.980469 C 392.089844 471.453125 389.597656 471.304688 389.925781 473.71875 C 390.289062 476.363281 392.90625 476.152344 394.875 475.816406 C 399.847656 474.964844 404.839844 474.105469 409.722656 472.859375 C 434.925781 466.4375 460.613281 463.027344 486.46875 461.121094 C 504.238281 459.816406 522.125 461.507812 538.441406 460.164062 Z M 501.503906 483.382812 C 461.417969 483.171875 428.535156 487.824219 395.734375 493.308594 C 388.171875 494.574219 380.609375 495.871094 373.082031 497.320312 C 371.699219 497.585938 369.464844 497.71875 369.945312 500.144531 C 370.414062 502.5 372.109375 502.53125 374.171875 502.210938 C 382.964844 500.839844 391.769531 499.546875 400.585938 498.363281 C 419.847656 495.78125 439.050781 492.371094 458.398438 490.980469 C 482.042969 489.285156 505.78125 488.453125 529.492188 491.746094 C 543.316406 493.664062 557.363281 493.855469 570.019531 500.972656 C 572.523438 502.382812 575.882812 502.335938 578.875 502.777344 C 580.746094 503.050781 582.863281 502.824219 583.1875 500.53125 C 583.488281 498.425781 581.6875 496.828125 579.914062 496.863281 C 574.085938 496.984375 569.605469 493.488281 564.496094 491.726562 C 541.863281 483.914062 518.082031 485.480469 501.503906 483.382812 Z M 669.863281 382.199219 C 669.628906 380.570312 668.636719 379.652344 667.199219 379.148438 C 663.972656 378.011719 660.808594 376.632812 657.507812 375.796875 C 642.375 371.96875 627.019531 369.589844 611.410156 368.714844 C 591.691406 367.613281 572.09375 369.039062 552.550781 371.367188 C 550.929688 371.558594 547.117188 370.976562 547.609375 374.28125 C 547.980469 376.777344 550.96875 375.882812 552.882812 375.808594 C 564.445312 375.355469 576.019531 375.0625 587.558594 374.230469 C 602.4375 373.152344 617.144531 375.097656 631.808594 376.695312 C 642.796875 377.894531 653.722656 380.375 664.144531 384.425781 C 666.78125 385.453125 668.902344 385.316406 669.863281 382.199219 Z M 560.625 395.277344 C 554.320312 395.277344 548.015625 395.273438 541.714844 395.28125 C 539.859375 395.285156 537.636719 395.261719 537.625 397.71875 C 537.613281 400.074219 539.78125 400.277344 541.660156 400.40625 C 544.902344 400.621094 548.144531 401.015625 551.386719 401.042969 C 572.527344 401.210938 593.554688 402.675781 614.414062 406.246094 C 622.984375 407.710938 631.582031 409.015625 639.863281 411.796875 C 641.949219 412.496094 644.652344 413.632812 645.699219 410.941406 C 646.890625 407.882812 644.03125 406.820312 641.714844 405.976562 C 639.445312 405.148438 637.148438 404.316406 634.796875 403.789062 C 610.375 398.324219 585.667969 395.304688 560.625 395.277344 Z M 543.933594 420.011719 C 539.589844 420.011719 532.882812 420.023438 526.179688 420.003906 C 524.070312 419.996094 521.671875 420.203125 521.457031 422.628906 C 521.191406 425.617188 523.917969 425.265625 525.871094 425.316406 C 533.585938 425.5 541.316406 425.960938 549.019531 425.683594 C 571.570312 424.875 593.199219 430.4375 615.023438 434.742188 C 617.878906 435.304688 621.96875 439.121094 623.425781 434.734375 C 624.898438 430.292969 619.417969 430.335938 616.519531 428.988281 C 616.152344 428.820312 615.78125 428.621094 615.386719 428.546875 C 592.539062 424.1875 569.875 418.375 543.933594 420.011719 Z M 328.996094 553.660156 C 350.109375 551.246094 371.234375 551.980469 392.308594 553.449219 C 410.492188 554.714844 428.613281 557.007812 446.75 558.945312 C 465.476562 560.953125 484.285156 562.042969 502.867188 565.523438 C 531.683594 570.917969 560.558594 575.953125 587.863281 587.1875 C 592.167969 588.957031 595.332031 587.761719 597.945312 584.269531 C 607.835938 571.0625 619.726562 559.589844 631.121094 547.816406 C 649.355469 528.976562 666.695312 509.316406 684.417969 490.050781 C 717.160156 454.460938 749.378906 418.402344 783.933594 384.535156 C 787.4375 381.101562 785.972656 380.476562 782.546875 379.128906 C 767.472656 373.210938 751.699219 371.003906 735.695312 369.867188 C 734.023438 369.746094 732.5625 369.789062 731.3125 371.265625 C 723.945312 379.949219 714.972656 387.167969 708.164062 396.351562 C 691.558594 418.757812 671.996094 438.667969 654.203125 460.078125 C 643.023438 473.53125 631.800781 486.769531 622.3125 501.484375 C 617.152344 509.496094 611.433594 517.160156 605.808594 524.863281 C 600.097656 532.679688 593.472656 538.257812 583.007812 532.949219 C 581.960938 532.414062 580.664062 532.335938 579.472656 532.121094 C 562.246094 528.988281 544.71875 529.144531 527.351562 527.46875 C 499.605469 524.792969 471.664062 525.441406 443.839844 526.246094 C 425.011719 526.789062 406.21875 529.324219 387.472656 531.511719 C 365.023438 534.128906 343.886719 542.21875 322.242188 548.164062 C 318.410156 549.214844 314.585938 550.675781 310.753906 553.761719 C 317.296875 553.761719 323.21875 554.324219 328.996094 553.660156 Z M 35.429688 447.8125 C 54.496094 455.128906 73.332031 463.109375 92.628906 469.757812 C 137.402344 485.183594 181.511719 502.367188 225.015625 520.949219 C 249.652344 531.476562 273.925781 542.925781 298.828125 552.777344 C 297.277344 546.773438 294.019531 541.421875 289.5625 536.582031 C 279.085938 525.203125 268.160156 514.289062 256.296875 504.375 C 248.511719 497.875 240.511719 491.59375 231.699219 486.464844 C 209.257812 473.40625 186.011719 462.128906 161.921875 452.304688 C 132.894531 440.464844 104.25 427.769531 74.074219 418.914062 C 58.808594 414.433594 43.824219 408.996094 28.242188 403.839844 C 28.242188 407.054688 28.277344 409.675781 28.230469 412.296875 C 28.195312 414.445312 29.027344 415.847656 31.296875 416.027344 C 43.589844 417 54.6875 422.128906 66.152344 425.984375 C 92.011719 434.679688 117.78125 443.691406 142.945312 454.179688 C 157.652344 460.3125 172.074219 467.625 186.921875 473.011719 C 207.640625 480.53125 225.902344 491.753906 244.304688 503.160156 C 253.089844 508.609375 259.488281 516.507812 267.054688 524.40625 C 262.902344 524.855469 261.113281 522.722656 259.257812 521.046875 C 243.898438 507.191406 225.726562 497.648438 207.867188 487.679688 C 198.140625 482.25 186.871094 480.285156 177.054688 474.933594 C 162.457031 466.976562 146.707031 461.597656 131.375 455.445312 C 104.75 444.765625 77.453125 435.757812 50.457031 425.996094 C 43.339844 423.425781 36.097656 421.496094 29.054688 420.632812 C 25.96875 428.316406 30.011719 431.351562 36.070312 433.578125 C 41.574219 435.601562 46.9375 437.8125 52.871094 438.449219 C 63.730469 439.609375 72.84375 446.113281 83.195312 448.773438 C 97.558594 452.464844 110.992188 458.589844 124.753906 463.859375 C 139.125 469.363281 152.664062 477.074219 167.027344 482.140625 C 184.835938 488.425781 201.890625 496.191406 219.195312 503.515625 C 226.179688 506.46875 232.667969 510.171875 238.527344 514.894531 C 242.613281 518.1875 246.613281 521.6875 248.855469 526.722656 C 238.78125 520.484375 229.242188 513.691406 218.339844 509.136719 C 207.320312 504.535156 196.386719 499.722656 185.542969 494.71875 C 175.4375 490.058594 164.378906 488.3125 154.347656 483.097656 C 132.4375 471.707031 109.214844 463.3125 85.988281 454.929688 C 67.234375 448.164062 47.878906 443.257812 28.648438 435.988281 C 27.570312 441.867188 29.863281 445.675781 35.429688 447.8125 Z M 612.96875 639.546875 C 612.789062 635.128906 610.441406 631.050781 606.800781 630 C 588.273438 624.644531 571.316406 615.441406 553.296875 608.890625 C 532.632812 601.378906 511.265625 596.351562 490.117188 590.539062 C 488.628906 590.132812 486.875 589.648438 487.46875 587.316406 C 491.972656 586.53125 496.339844 586.960938 500.660156 588.308594 C 507.210938 590.347656 513.707031 592.601562 520.351562 594.265625 C 539.316406 599.015625 558.1875 603.835938 576.023438 612.269531 C 584.714844 616.378906 593.59375 620.433594 603.121094 622.535156 C 603.316406 622.328125 603.511719 622.125 603.714844 621.921875 C 603.371094 620.546875 602.953125 619.183594 602.699219 617.792969 C 601.652344 612.136719 598.914062 608.859375 592.683594 607.734375 C 583.761719 606.121094 575.066406 603.25 566.269531 600.949219 C 541.847656 594.5625 517.480469 588.015625 492.714844 582.984375 C 477.664062 579.929688 462.441406 578.128906 447.25 575.734375 C 447.929688 573.609375 449.339844 573.542969 450.800781 573.554688 C 457.101562 573.59375 463.496094 572.953125 469.6875 573.792969 C 495.730469 577.332031 521.230469 583.527344 546.597656 590.332031 C 563.648438 594.902344 580.789062 599.136719 598.496094 603.679688 C 596.734375 598.238281 595.648438 593.414062 588.765625 593.800781 C 586.480469 593.929688 584.082031 592.683594 581.789062 591.917969 C 567.792969 587.234375 554.167969 581.464844 539.457031 578.988281 C 517.296875 575.257812 495.445312 569.472656 472.996094 567.757812 C 446.074219 565.703125 419.40625 561.328125 392.480469 559.539062 C 372.15625 558.1875 351.796875 557.464844 331.386719 559.753906 C 338.332031 561.738281 345.289062 563.632812 352.355469 564.957031 C 389.269531 571.871094 426.3125 578.132812 462.859375 586.90625 C 511.1875 598.507812 558.144531 614.09375 603.347656 634.871094 C 606.597656 636.367188 608.96875 639.726562 613.027344 639.476562 Z M 616.5625 591.394531 C 631.9375 575.761719 647.472656 560.28125 662.847656 544.648438 C 679.09375 528.132812 695.832031 512.046875 711.265625 494.800781 C 731.328125 472.375 751.648438 450.152344 773.125 429.160156 C 785.109375 417.445312 787.53125 404.007812 788.242188 388.242188 C 771.238281 405.976562 754.453125 423.011719 738.199219 440.539062 C 711.957031 468.835938 686.09375 497.484375 660.003906 525.921875 C 651.367188 535.332031 643.285156 545.203125 634.074219 554.171875 C 624.945312 563.0625 616.574219 572.816406 607.785156 582.125 C 599.21875 591.195312 599.527344 591.488281 606.257812 603.027344 C 609.867188 598.925781 613.035156 594.980469 616.5625 591.394531 Z M 397.550781 427.632812 C 401.300781 422.839844 405.039062 418.039062 408.804688 413.253906 C 434.914062 380.074219 458.902344 345.277344 485.648438 312.578125 C 486.816406 311.152344 489.707031 309.964844 487.503906 307.066406 C 477.21875 293.539062 466.667969 280.238281 455.089844 266.796875 C 449.863281 278.53125 444.992188 289.789062 439.808594 300.902344 C 438.210938 304.332031 438.855469 306.519531 441.773438 308.585938 C 446.972656 312.269531 451.15625 316.972656 454.625 322.277344 C 455.734375 323.972656 458.273438 325.980469 455.558594 327.996094 C 452.707031 330.113281 451.046875 327.296875 449.753906 325.441406 C 446.023438 320.089844 441.511719 315.5625 436.183594 311.140625 C 431.507812 324.558594 427.304688 337.671875 422.3125 350.476562 C 420.101562 356.152344 419.070312 360.722656 424.535156 364.917969 C 425.925781 365.988281 427.21875 367.894531 425.628906 369.683594 C 423.835938 371.695312 422.4375 369.769531 421.019531 368.734375 C 419.773438 367.824219 419.222656 365.9375 416.878906 366.011719 C 410.148438 386.230469 403.394531 406.523438 396.640625 426.816406 C 396.949219 427.085938 397.25 427.359375 397.550781 427.632812 Z M 748.519531 488.261719 C 728.480469 508.734375 708.597656 529.359375 688.285156 549.574219 C 665.273438 572.472656 645.339844 598.335938 621.753906 620.777344 C 614.613281 627.566406 614.832031 627.796875 619.78125 636.476562 C 623.890625 643.683594 624.5 643.558594 630.007812 637.011719 C 646.625 617.273438 663.179688 597.480469 680.179688 578.078125 C 709.367188 544.765625 737.253906 510.261719 769.460938 479.671875 C 776.105469 473.363281 780.921875 465.792969 778.6875 454.929688 C 768.371094 466.382812 758.84375 477.714844 748.519531 488.261719 Z M 616.566406 618.296875 C 627.996094 607 638.402344 594.738281 649.464844 583.140625 C 667.539062 564.195312 684.425781 544.203125 703.542969 526.117188 C 728.472656 502.535156 751.191406 476.621094 774.839844 451.691406 C 781.195312 444.996094 783.390625 437.386719 781.820312 427.535156 C 777.929688 431.636719 774.128906 435.5625 770.410156 439.566406 C 746.597656 465.175781 723.464844 491.417969 698.816406 516.25 C 683.917969 531.257812 669.015625 546.285156 654.375 561.523438 C 641.554688 574.867188 627.921875 587.375 615.246094 600.859375 C 606.484375 610.183594 605.9375 609.671875 611.058594 621.574219 C 611.132812 621.742188 611.332031 621.851562 612.617188 623.109375 C 614.015625 621.390625 615.148438 619.699219 616.566406 618.296875 Z M 616.566406 618.296875 " fill-opacity="1" fill-rule="nonzero"/></svg>