<svg xmlns="http://www.w3.org/2000/svg" xmlns:xlink="http://www.w3.org/1999/xlink" width="1080" zoomAndPan="magnify" viewBox="0 0 810 809.999993" height="1080" preserveAspectRatio="xMidYMid meet" version="1.0"><defs><clipPath id="62b4e2d468"><path d="M 280 247 L 800 247 L 800 709 L 280 709 Z M 280 247 " clip-rule="nonzero"/></clipPath><clipPath id="0bf8a2a734"><path d="M 52.058594 0 L 853.660156 110.988281 L 758.203125 800.414062 L -43.398438 689.421875 Z M 52.058594 0 " clip-rule="nonzero"/></clipPath><clipPath id="ad2e1ae79d"><path d="M 52.058594 0 L 853.660156 110.988281 L 758.203125 800.414062 L -43.398438 689.421875 Z M 52.058594 0 " clip-rule="nonzero"/></clipPath><clipPath id="e76e4190a5"><path d="M 18 32 L 538 32 L 538 494 L 18 494 Z M 18 32 " clip-rule="nonzero"/></clipPath><clipPath id="bacaca11ad"><path d="M 52.058594 0 L 853.660156 110.988281 L 758.203125 800.414062 L -43.398438 689.421875 Z M 52.058594 0 " clip-rule="nonzero"/></clipPath><clipPath id="cc24eceb3c"><path d="M 52.058594 0 L 853.660156 110.988281 L 758.203125 800.414062 L -43.398438 689.421875 Z M 52.058594 0 " clip-rule="nonzero"/></clipPath><clipPath id="40867b8b70"><path d="M 201 125 L 377 125 L 377 401 L 201 401 Z M 201 125 " clip-rule="nonzero"/></clipPath><clipPath id="460efa08d1"><path d="M 52.058594 0 L 853.660156 110.988281 L 758.203125 800.414062 L -43.398438 689.421875 Z M 52.058594 0 " clip-rule="nonzero"/></clipPath><clipPath id="b8faef6a9b"><path d="M 52.058594 0 L 853.660156 110.988281 L 758.203125 800.414062 L -43.398438 689.421875 Z M 52.058594 0 " clip-rule="nonzero"/></clipPath><clipPath id="cc541b3baf"><path d="M 51 400 L 201 400 L 201 524 L 51 524 Z M 51 400 " clip-rule="nonzero"/></clipPath><clipPath id="a2902992b7"><path d="M 52.058594 0 L 853.660156 110.988281 L 758.203125 800.414062 L -43.398438 689.421875 Z M 52.058594 0 " clip-rule="nonzero"/></clipPath><clipPath id="cfddc90172"><path d="M 52.058594 0 L 853.660156 110.988281 L 758.203125 800.414062 L -43.398438 689.421875 Z M 52.058594 0 " clip-rule="nonzero"/></clipPath><clipPath id="540d5461b3"><path d="M 553 645 L 690 645 L 690 786 L 553 786 Z M 553 645 " clip-rule="nonzero"/></clipPath><clipPath id="998d5805b3"><path d="M 52.058594 0 L 853.660156 110.988281 L 758.203125 800.414062 L -43.398438 689.421875 Z M 52.058594 0 " clip-rule="nonzero"/></clipPath><clipPath id="0abdb9512e"><path d="M 52.058594 0 L 853.660156 110.988281 L 758.203125 800.414062 L -43.398438 689.421875 Z M 52.058594 0 " clip-rule="nonzero"/></clipPath><clipPath id="0d691a53f8"><path d="M 375 483 L 448 483 L 448 550 L 375 550 Z M 375 483 " clip-rule="nonzero"/></clipPath><clipPath id="ed8c35fb06"><path d="M 52.058594 0 L 853.660156 110.988281 L 758.203125 800.414062 L -43.398438 689.421875 Z M 52.058594 0 " clip-rule="nonzero"/></clipPath><clipPath id="fefedf6c4d"><path d="M 52.058594 0 L 853.660156 110.988281 L 758.203125 800.414062 L -43.398438 689.421875 Z M 52.058594 0 " clip-rule="nonzero"/></clipPath><clipPath id="4b19e56c1b"><path d="M 490 499 L 563 499 L 563 566 L 490 566 Z M 490 499 " clip-rule="nonzero"/></clipPath><clipPath id="1979439b79"><path d="M 52.058594 0 L 853.660156 110.988281 L 758.203125 800.414062 L -43.398438 689.421875 Z M 52.058594 0 " clip-rule="nonzero"/></clipPath><clipPath id="f1f5bc0300"><path d="M 52.058594 0 L 853.660156 110.988281 L 758.203125 800.414062 L -43.398438 689.421875 Z M 52.058594 0 " clip-rule="nonzero"/></clipPath><clipPath id="6f6200508e"><path d="M 605 515 L 678 515 L 678 582 L 605 582 Z M 605 515 " clip-rule="nonzero"/></clipPath><clipPath id="af4a3d1feb"><path d="M 52.058594 0 L 853.660156 110.988281 L 758.203125 800.414062 L -43.398438 689.421875 Z M 52.058594 0 " clip-rule="nonzero"/></clipPath><clipPath id="c98a4bfcf8"><path d="M 52.058594 0 L 853.660156 110.988281 L 758.203125 800.414062 L -43.398438 689.421875 Z M 52.058594 0 " clip-rule="nonzero"/></clipPath></defs><g clip-path="url(#62b4e2d468)"><g clip-path="url(#0bf8a2a734)"><g clip-path="url(#ad2e1ae79d)"><path fill="#fef4e6" d="M 797.453125 513.699219 C 780.058594 639.316406 650.644531 725.1875 508.394531 705.492188 C 366.152344 685.796875 264.933594 567.992188 282.324219 442.375 C 299.71875 316.75 429.140625 230.875 571.382812 250.570312 C 713.632812 270.265625 814.847656 388.070312 797.453125 513.699219 " fill-opacity="1" fill-rule="nonzero"/></g></g></g><g clip-path="url(#e76e4190a5)"><g clip-path="url(#bacaca11ad)"><g clip-path="url(#cc24eceb3c)"><path fill="#751133" d="M 535.949219 298.921875 C 518.554688 424.542969 389.140625 510.421875 246.890625 490.726562 C 104.640625 471.03125 3.429688 353.21875 20.824219 227.601562 C 38.21875 101.972656 167.628906 16.101562 309.878906 35.796875 C 452.128906 55.492188 553.34375 173.296875 535.949219 298.921875 " fill-opacity="1" fill-rule="nonzero"/></g></g></g><g clip-path="url(#40867b8b70)"><g clip-path="url(#460efa08d1)"><g clip-path="url(#b8faef6a9b)"><path fill="#d4b095" d="M 297.234375 372.21875 C 295.730469 383.089844 291.871094 390.734375 285.660156 395.152344 C 279.441406 399.566406 271.351562 401.089844 261.371094 399.710938 C 251.144531 398.292969 243.636719 394.609375 238.851562 388.671875 C 234.074219 382.734375 232.441406 374.328125 233.945312 363.457031 C 235.46875 352.460938 239.320312 344.847656 245.503906 340.621094 C 251.699219 336.398438 259.910156 334.992188 270.136719 336.410156 C 280.75 337.878906 288.304688 341.464844 292.789062 347.167969 C 297.277344 352.871094 298.757812 361.222656 297.234375 372.21875 Z M 375.605469 218.464844 C 374.683594 225.117188 372.660156 231.027344 369.542969 236.195312 C 366.40625 241.367188 362.675781 245.996094 358.328125 250.089844 C 353.976562 254.179688 349.273438 257.824219 344.199219 261.03125 C 339.128906 264.242188 334.234375 267.152344 329.503906 269.75 C 324.777344 272.355469 320.402344 274.785156 316.378906 277.027344 C 312.351562 279.269531 309.28125 281.480469 307.148438 283.664062 C 306.246094 284.582031 305.132812 286.019531 303.816406 287.992188 C 302.5 289.960938 301.660156 292.289062 301.285156 294.972656 C 300.332031 301.878906 297.398438 307.273438 292.5 311.152344 C 287.59375 315.042969 280.605469 316.351562 271.523438 315.09375 C 266.023438 314.332031 261.640625 312.84375 258.363281 310.632812 C 255.078125 308.414062 252.5625 305.890625 250.804688 303.039062 C 249.054688 300.191406 247.960938 297.234375 247.542969 294.183594 C 247.117188 291.121094 247.074219 288.378906 247.410156 285.949219 C 248.613281 277.257812 251.09375 270.171875 254.851562 264.695312 C 258.605469 259.21875 263.015625 254.652344 268.085938 250.984375 C 273.15625 247.316406 278.460938 244.242188 284.023438 241.757812 C 289.582031 239.265625 294.835938 236.605469 299.792969 233.769531 C 304.75 230.9375 308.984375 227.582031 312.523438 223.703125 C 316.058594 219.832031 318.265625 214.699219 319.152344 208.300781 C 320.074219 201.65625 319.679688 196.25 317.972656 192.105469 C 316.265625 187.960938 313.914062 184.730469 310.90625 182.429688 C 307.910156 180.121094 304.675781 178.507812 301.222656 177.570312 C 297.765625 176.636719 294.820312 175.996094 292.390625 175.660156 C 286 174.773438 280.761719 174.996094 276.667969 176.320312 C 272.570312 177.640625 269.339844 179.570312 266.964844 182.117188 C 264.59375 184.652344 262.882812 187.578125 261.84375 190.882812 C 260.796875 194.191406 260.0625 197.382812 259.636719 200.449219 C 258.949219 205.433594 257.398438 209.554688 254.996094 212.808594 C 252.589844 216.058594 249.796875 218.578125 246.625 220.347656 C 243.441406 222.125 240.082031 223.285156 236.558594 223.839844 C 233.027344 224.398438 229.851562 224.476562 227.042969 224.085938 C 218.351562 222.882812 211.648438 219.519531 206.9375 213.972656 C 202.234375 208.433594 200.402344 201.898438 201.449219 194.347656 C 201.910156 191.023438 202.882812 186.796875 204.378906 181.65625 C 205.867188 176.519531 208.105469 171.160156 211.105469 165.578125 C 214.085938 160.003906 217.972656 154.535156 222.75 149.210938 C 227.523438 143.875 233.4375 139.28125 240.492188 135.433594 C 247.535156 131.59375 255.871094 128.832031 265.488281 127.171875 C 275.097656 125.5 286.304688 125.554688 299.085938 127.324219 C 313.535156 129.324219 325.957031 133.035156 336.351562 138.445312 C 346.742188 143.859375 355.101562 150.558594 361.425781 158.53125 C 367.75 166.519531 372.09375 175.585938 374.472656 185.753906 C 376.839844 195.929688 377.21875 206.824219 375.605469 218.464844 " fill-opacity="1" fill-rule="nonzero"/></g></g></g><g clip-path="url(#cc541b3baf)"><g clip-path="url(#a2902992b7)"><g clip-path="url(#cfddc90172)"><path fill="#751133" d="M 92.453125 418.171875 C 108.382812 443.253906 89.621094 460.132812 55.683594 498.421875 C 46.394531 508.902344 55.050781 525.257812 68.957031 523.652344 C 108.070312 519.140625 161.785156 480.828125 200.804688 480.542969 C 200.804688 480.542969 194.613281 426.5625 166.539062 408.808594 C 137.195312 390.253906 86.042969 408.085938 92.453125 418.171875 " fill-opacity="1" fill-rule="nonzero"/></g></g></g><g clip-path="url(#540d5461b3)"><g clip-path="url(#998d5805b3)"><g clip-path="url(#0abdb9512e)"><path fill="#fef4e6" d="M 674.292969 676.660156 C 652.144531 696.46875 665.617188 717.808594 687.871094 763.890625 C 693.964844 776.492188 681.1875 789.878906 668.234375 784.558594 C 631.828125 769.585938 590.542969 718.121094 553.066406 707.25 C 553.066406 707.25 573.691406 656.984375 605.539062 647.519531 C 638.816406 637.632812 683.203125 668.691406 674.292969 676.660156 " fill-opacity="1" fill-rule="nonzero"/></g></g></g><g clip-path="url(#0d691a53f8)"><g clip-path="url(#ed8c35fb06)"><g clip-path="url(#fefedf6c4d)"><path fill="#d4b095" d="M 447.230469 521.792969 C 449.71875 503.832031 435.714844 487.054688 415.945312 484.316406 C 396.175781 481.578125 378.140625 493.921875 375.652344 511.878906 C 373.167969 529.839844 387.171875 546.617188 406.941406 549.355469 C 426.707031 552.09375 444.746094 539.75 447.230469 521.792969 " fill-opacity="1" fill-rule="nonzero"/></g></g></g><g clip-path="url(#4b19e56c1b)"><g clip-path="url(#1979439b79)"><g clip-path="url(#f1f5bc0300)"><path fill="#d4b095" d="M 562.15625 537.703125 C 564.640625 519.746094 550.636719 502.964844 530.878906 500.230469 C 511.109375 497.492188 493.074219 509.835938 490.585938 527.792969 C 488.097656 545.753906 502.105469 562.53125 521.871094 565.269531 C 541.632812 568.003906 559.667969 555.664062 562.15625 537.703125 " fill-opacity="1" fill-rule="nonzero"/></g></g></g><g clip-path="url(#6f6200508e)"><g clip-path="url(#af4a3d1feb)"><g clip-path="url(#c98a4bfcf8)"><path fill="#d4b095" d="M 677.085938 553.617188 C 679.574219 535.65625 665.570312 518.878906 645.800781 516.140625 C 626.035156 513.40625 607.996094 525.746094 605.511719 543.707031 C 603.023438 561.664062 617.027344 578.445312 636.796875 581.179688 C 656.5625 583.917969 674.601562 571.574219 677.085938 553.617188 " fill-opacity="1" fill-rule="nonzero"/></g></g></g></svg>