<svg xmlns="http://www.w3.org/2000/svg" xmlns:xlink="http://www.w3.org/1999/xlink" width="120" zoomAndPan="magnify" viewBox="0 0 90 37.5" height="50" preserveAspectRatio="xMidYMid meet" version="1.0"><defs><clipPath id="8cc7773652"><path d="M 1 6 L 89 6 L 89 35 L 1 35 Z M 1 6 " clip-rule="nonzero"/></clipPath><clipPath id="de761f649e"><path d="M -0.996094 9.421875 L 87.558594 2.585938 L 89.496094 27.675781 L 0.941406 34.511719 Z M -0.996094 9.421875 " clip-rule="nonzero"/></clipPath><clipPath id="5a5c66e726"><path d="M 0.933594 34.410156 L 89.484375 27.570312 L 87.550781 2.480469 L -1.003906 9.320312 Z M 0.933594 34.410156 " clip-rule="nonzero"/></clipPath><clipPath id="2d27da5979"><path d="M 13 21 L 14 21 L 14 22 L 13 22 Z M 13 21 " clip-rule="nonzero"/></clipPath><clipPath id="3c50263852"><path d="M -0.996094 9.421875 L 87.558594 2.585938 L 89.496094 27.675781 L 0.941406 34.511719 Z M -0.996094 9.421875 " clip-rule="nonzero"/></clipPath><clipPath id="3d7da0cad9"><path d="M 0.933594 34.410156 L 89.484375 27.570312 L 87.550781 2.480469 L -1.003906 9.320312 Z M 0.933594 34.410156 " clip-rule="nonzero"/></clipPath></defs><g clip-path="url(#8cc7773652)"><g clip-path="url(#de761f649e)"><g clip-path="url(#5a5c66e726)"><path fill="#f5895d" d="M 2.292969 33.570312 C 2.242188 33.511719 2.230469 33.441406 2.257812 33.367188 C 2.0625 33.175781 1.667969 33.367188 1.570312 32.996094 C 0.929688 32.445312 1.109375 31.820312 1.414062 31.191406 C 2.28125 29.429688 3.414062 27.847656 4.648438 26.335938 C 9.0625 20.917969 14.402344 16.671875 20.546875 13.335938 C 31.277344 7.511719 42.691406 5.9375 54.636719 7.457031 C 60.175781 8.160156 65.484375 9.820312 70.71875 11.730469 C 73.796875 12.851562 76.796875 14.152344 79.828125 15.386719 C 79.917969 15.476562 80.003906 15.570312 80.09375 15.664062 C 80.238281 15.65625 80.402344 15.695312 80.519531 15.632812 C 80.519531 15.632812 80.519531 15.632812 80.519531 15.628906 C 80.609375 15.578125 80.539062 15.453125 80.429688 15.410156 C 79.773438 14.300781 78.90625 13.371094 77.988281 12.484375 C 77.363281 11.878906 76.800781 11.242188 76.433594 10.445312 C 75.074219 9.148438 74.917969 7.664062 75.933594 6.28125 C 79.511719 7.359375 81.847656 9.960938 84.003906 12.800781 C 84.808594 13.855469 85.679688 14.855469 86.539062 15.867188 C 88.589844 18.289062 88.15625 18.054688 87.3125 20.496094 C 87.125 21.042969 86.8125 21.539062 86.453125 21.996094 C 86.320312 22.164062 86.183594 22.308594 85.957031 22.324219 C 85.707031 22.9375 85.15625 22.984375 84.617188 23.007812 C 83.019531 23.070312 81.417969 23.117188 79.816406 23.167969 C 79.496094 23.375 79.144531 23.347656 78.792969 23.300781 C 78.480469 23.523438 78.125 23.488281 77.773438 23.46875 C 77.578125 23.664062 77.308594 23.617188 77.074219 23.667969 C 73.867188 24.375 70.785156 25.433594 67.894531 27.019531 C 67.675781 27.136719 67.449219 27.238281 67.226562 27.347656 C 66.964844 27.480469 66.667969 27.632812 66.429688 27.390625 C 66.25 27.210938 66.269531 26.855469 66.402344 26.683594 C 66.984375 25.917969 67 24.921875 67.496094 24.132812 C 67.71875 23.78125 68.0625 23.546875 68.417969 23.320312 C 71.144531 21.539062 74.113281 20.289062 77.214844 19.34375 C 77.492188 19.257812 77.789062 19.214844 78.039062 19.078125 C 78.328125 18.914062 78.222656 18.664062 78.054688 18.449219 C 77.730469 18.515625 77.488281 18.402344 77.316406 18.125 C 77.007812 18.128906 76.710938 18.105469 76.53125 17.796875 C 76.457031 17.839844 76.40625 17.820312 76.378906 17.742188 C 76.085938 17.75 75.8125 17.714844 75.632812 17.441406 C 75.433594 17.402344 75.222656 17.390625 75.035156 17.320312 C 72.945312 16.546875 70.871094 15.742188 68.777344 14.996094 C 66.875 14.316406 64.953125 13.695312 63.042969 13.054688 C 62.515625 12.945312 61.988281 12.855469 61.46875 12.726562 C 56.421875 11.507812 51.304688 10.914062 46.113281 11.089844 C 44.257812 11.152344 42.410156 11.273438 40.554688 11.367188 C 40.21875 11.59375 39.855469 11.542969 39.484375 11.496094 C 39.167969 11.722656 38.820312 11.679688 38.464844 11.640625 C 38.179688 11.875 37.847656 11.808594 37.519531 11.800781 C 37.34375 11.972656 37.136719 11.980469 36.917969 11.921875 C 36.851562 11.980469 36.777344 11.988281 36.699219 11.945312 C 36.503906 12.132812 36.238281 12.09375 36.007812 12.148438 C 34.855469 12.441406 33.660156 12.523438 32.542969 12.957031 C 32.433594 12.871094 32.089844 12.847656 32.492188 12.640625 C 32.757812 12.5 32.765625 12.417969 32.6875 12.355469 C 32.617188 12.300781 32.476562 12.261719 32.375 12.21875 C 28.769531 13.25 25.332031 14.707031 21.984375 16.390625 C 21.6875 16.578125 21.390625 16.761719 21.09375 16.945312 C 19.328125 18.054688 17.554688 19.160156 15.789062 20.261719 C 15.757812 20.34375 15.710938 20.398438 15.644531 20.433594 C 15.601562 20.457031 15.554688 20.472656 15.496094 20.476562 C 15.449219 20.609375 15.351562 20.675781 15.214844 20.683594 C 15.167969 20.820312 15.070312 20.886719 14.929688 20.890625 C 14.886719 21.027344 14.789062 21.09375 14.644531 21.101562 C 14.605469 21.238281 14.511719 21.3125 14.367188 21.3125 C 14.328125 21.457031 14.234375 21.527344 14.089844 21.527344 L 14.085938 21.53125 C 14.050781 21.667969 13.957031 21.742188 13.816406 21.742188 L 13.808594 21.746094 C 13.726562 21.824219 13.636719 21.894531 13.542969 21.960938 L 13.53125 21.96875 C 13.496094 22.109375 13.410156 22.179688 13.265625 22.1875 L 13.257812 22.191406 C 13.222656 22.332031 13.132812 22.40625 12.988281 22.410156 L 12.980469 22.417969 C 12.980469 22.417969 12.976562 22.421875 12.976562 22.421875 C 12.976562 22.421875 12.980469 22.417969 12.980469 22.417969 C 12.949219 22.558594 12.859375 22.632812 12.714844 22.636719 L 12.707031 22.640625 C 12.675781 22.78125 12.585938 22.855469 12.441406 22.859375 L 12.4375 22.863281 C 12.402344 23.003906 12.3125 23.078125 12.167969 23.085938 C 11.382812 23.832031 10.597656 24.578125 9.8125 25.324219 C 9.28125 25.582031 8.9375 26.054688 8.546875 26.46875 C 8.566406 26.53125 8.601562 26.582031 8.640625 26.625 C 8.699219 26.691406 8.777344 26.738281 8.878906 26.757812 C 8.613281 27.101562 8.375 27.460938 7.972656 27.664062 C 7.84375 27.710938 7.726562 27.777344 7.640625 27.890625 C 7.75 27.816406 7.859375 27.738281 7.972656 27.664062 C 7.910156 27.789062 7.835938 27.902344 7.679688 27.890625 C 7.65625 28.105469 7.53125 28.246094 7.339844 28.339844 C 7.328125 28.480469 7.261719 28.570312 7.117188 28.589844 C 7.066406 28.726562 6.996094 28.832031 6.84375 28.859375 C 6.828125 28.929688 6.796875 28.988281 6.726562 29.023438 C 6.53125 29.402344 6.265625 29.71875 5.921875 29.972656 C 5.765625 30.234375 5.617188 30.5 5.34375 30.65625 C 5.308594 30.859375 5.15625 30.976562 5.015625 31.101562 C 4.410156 32.128906 3.617188 33.035156 3.1875 34.230469 C 2.875 33.910156 2.402344 34.007812 2.292969 33.570312 Z M 76.402344 17.496094 C 76.398438 17.496094 76.398438 17.496094 76.394531 17.496094 C 76.394531 17.492188 76.398438 17.492188 76.398438 17.492188 C 76.394531 17.492188 76.390625 17.496094 76.390625 17.496094 C 76.390625 17.496094 76.394531 17.496094 76.394531 17.496094 C 76.394531 17.5 76.394531 17.503906 76.394531 17.507812 C 76.398438 17.503906 76.398438 17.5 76.402344 17.496094 Z M 12.328125 22.0625 C 12.34375 22.042969 12.363281 22.019531 12.382812 22 C 12.375 22.003906 12.367188 22.007812 12.363281 22.011719 C 12.34375 22.027344 12.324219 22.039062 12.304688 22.058594 C 12.308594 22.058594 12.316406 22.0625 12.328125 22.0625 Z M 15.769531 20.261719 C 15.769531 20.257812 15.765625 20.257812 15.765625 20.257812 C 15.757812 20.25 15.753906 20.242188 15.746094 20.234375 L 15.722656 20.214844 L 15.765625 20.257812 C 15.765625 20.261719 15.761719 20.261719 15.761719 20.265625 C 15.761719 20.261719 15.765625 20.261719 15.769531 20.261719 Z M 12.203125 22.027344 C 12.234375 22.039062 12.269531 22.046875 12.300781 22.054688 C 12.316406 22.039062 12.335938 22.027344 12.355469 22.011719 C 12.3125 22.039062 12.257812 22.046875 12.203125 22.027344 Z M 12.476562 21.90625 C 12.496094 21.886719 12.519531 21.871094 12.539062 21.851562 C 12.539062 21.847656 12.539062 21.847656 12.539062 21.84375 C 12.519531 21.867188 12.496094 21.886719 12.476562 21.90625 Z M 2.753906 31.359375 C 2.75 31.359375 2.746094 31.363281 2.746094 31.363281 C 2.746094 31.363281 2.742188 31.367188 2.742188 31.367188 C 2.742188 31.371094 2.738281 31.375 2.738281 31.378906 C 2.746094 31.375 2.746094 31.367188 2.753906 31.359375 Z M 3.027344 30.90625 C 3.023438 30.898438 3.023438 30.894531 3.03125 30.890625 C 3.03125 30.894531 3.023438 30.902344 3.027344 30.90625 Z M 7.429688 27.929688 C 7.40625 27.921875 7.378906 27.910156 7.355469 27.890625 C 7.355469 27.910156 7.351562 27.925781 7.351562 27.941406 C 7.375 27.9375 7.402344 27.933594 7.429688 27.929688 Z M 6.898438 28.703125 C 6.863281 28.730469 6.839844 28.773438 6.828125 28.824219 C 6.828125 28.824219 6.828125 28.824219 6.832031 28.824219 C 6.847656 28.773438 6.867188 28.734375 6.898438 28.703125 Z M 6.898438 28.703125 " fill-opacity="1" fill-rule="nonzero"/></g></g></g><g clip-path="url(#2d27da5979)"><g clip-path="url(#3c50263852)"><g clip-path="url(#3d7da0cad9)"><path fill="#f5895d" d="M 13.523438 21.972656 C 13.613281 21.898438 13.703125 21.828125 13.789062 21.753906 C 13.753906 21.898438 13.664062 21.964844 13.523438 21.972656 Z M 13.523438 21.972656 " fill-opacity="1" fill-rule="nonzero"/></g></g></g></svg>