<svg xmlns="http://www.w3.org/2000/svg" xmlns:xlink="http://www.w3.org/1999/xlink" width="500" zoomAndPan="magnify" viewBox="0 0 375 374.999991" height="500" preserveAspectRatio="xMidYMid meet" version="1.0"><defs><clipPath id="71c2e50ac1"><path d="M 55 3 L 320 3 L 320 371.980469 L 55 371.980469 Z M 55 3 " clip-rule="nonzero"/></clipPath></defs><path fill="#751133" d="M 151.460938 213.058594 C 163.226562 218.035156 175.726562 220.558594 188.605469 220.558594 C 201.488281 220.558594 213.984375 218.035156 225.75 213.058594 C 237.117188 208.25 247.320312 201.371094 256.082031 192.609375 C 264.847656 183.847656 271.726562 173.644531 276.53125 162.28125 C 281.511719 150.515625 284.03125 138.019531 284.03125 125.140625 C 284.03125 112.261719 281.511719 99.761719 276.53125 87.996094 C 271.726562 76.632812 264.84375 66.429688 256.082031 57.667969 C 247.320312 48.90625 237.117188 42.027344 225.75 37.222656 C 213.984375 32.246094 201.488281 29.722656 188.605469 29.722656 C 175.726562 29.722656 163.226562 32.246094 151.460938 37.222656 C 140.097656 42.027344 129.890625 48.90625 121.128906 57.667969 C 112.367188 66.429688 105.484375 76.632812 100.679688 87.996094 C 95.703125 99.761719 93.179688 112.261719 93.179688 125.140625 C 93.179688 138.019531 95.703125 150.515625 100.679688 162.28125 C 105.484375 173.644531 112.367188 183.847656 121.128906 192.609375 C 129.890625 201.371094 140.097656 208.253906 151.460938 213.058594 Z M 100.855469 125.136719 C 100.855469 113.292969 103.175781 101.800781 107.75 90.988281 C 112.171875 80.539062 118.496094 71.15625 126.558594 63.097656 C 134.617188 55.035156 144.003906 48.710938 154.449219 44.292969 C 165.265625 39.71875 176.757812 37.398438 188.605469 37.398438 C 200.453125 37.398438 211.945312 39.71875 222.761719 44.292969 C 233.210938 48.710938 242.59375 55.035156 250.652344 63.097656 C 258.714844 71.15625 265.042969 80.539062 269.460938 90.988281 C 274.035156 101.800781 276.355469 113.292969 276.355469 125.136719 C 276.355469 136.984375 274.035156 148.476562 269.460938 159.289062 C 265.042969 169.738281 258.714844 179.121094 250.652344 187.179688 C 242.59375 195.238281 233.210938 201.566406 222.761719 205.984375 C 211.945312 210.558594 200.453125 212.878906 188.605469 212.878906 C 176.757812 212.878906 165.265625 210.558594 154.449219 205.984375 C 144.003906 201.566406 134.617188 195.238281 126.558594 187.179688 C 118.496094 179.121094 112.171875 169.738281 107.75 159.289062 C 103.175781 148.476562 100.855469 136.984375 100.855469 125.136719 Z M 100.855469 125.136719 " fill-opacity="1" fill-rule="nonzero"/><path fill="#751133" d="M 159.480469 167.042969 C 160.167969 167.863281 161.164062 168.363281 162.230469 168.417969 C 162.296875 168.421875 162.363281 168.421875 162.429688 168.421875 C 163.425781 168.421875 164.386719 168.035156 165.105469 167.339844 L 236.949219 97.558594 C 238.46875 96.082031 238.503906 93.652344 237.027344 92.128906 C 235.550781 90.609375 233.117188 90.574219 231.597656 92.050781 L 162.726562 158.945312 L 139.308594 130.871094 C 137.949219 129.242188 135.53125 129.023438 133.902344 130.378906 C 132.273438 131.738281 132.054688 134.160156 133.410156 135.789062 Z M 159.480469 167.042969 " fill-opacity="1" fill-rule="nonzero"/><g clip-path="url(#71c2e50ac1)"><path fill="#751133" d="M 319.699219 334.125 L 272.253906 214.425781 C 273.6875 212.414062 274.742188 210.152344 275.363281 207.722656 L 275.367188 207.703125 C 276.335938 203.914062 279.070312 200.757812 282.679688 199.265625 C 282.683594 199.265625 282.691406 199.261719 282.695312 199.257812 C 286.507812 197.683594 289.703125 195.015625 291.9375 191.546875 C 294.171875 188.074219 295.277344 184.0625 295.132812 179.945312 L 295.132812 179.917969 C 294.996094 176.015625 296.730469 172.226562 299.765625 169.777344 C 299.769531 169.773438 299.773438 169.769531 299.777344 169.765625 C 302.996094 167.175781 305.308594 163.707031 306.472656 159.746094 C 307.632812 155.78125 307.558594 151.613281 306.25 147.695312 C 306.25 147.695312 306.25 147.691406 306.246094 147.6875 C 305.015625 143.984375 305.605469 139.855469 307.828125 136.648438 L 307.84375 136.621094 C 307.847656 136.621094 307.847656 136.621094 307.847656 136.621094 C 310.195312 133.230469 311.433594 129.261719 311.433594 125.140625 C 311.433594 121.019531 310.195312 117.050781 307.84375 113.65625 L 307.832031 113.640625 C 305.605469 110.429688 305.015625 106.304688 306.246094 102.601562 C 306.246094 102.597656 306.25 102.589844 306.25 102.585938 C 307.558594 98.667969 307.636719 94.5 306.472656 90.535156 C 305.308594 86.574219 302.996094 83.109375 299.773438 80.511719 C 296.730469 78.0625 294.996094 74.269531 295.132812 70.355469 L 295.132812 70.34375 C 295.277344 66.21875 294.171875 62.207031 291.9375 58.738281 C 289.703125 55.265625 286.507812 52.597656 282.6875 51.019531 C 279.070312 49.523438 276.335938 46.367188 275.367188 42.574219 L 275.363281 42.5625 C 274.34375 38.570312 272.15625 35.027344 269.039062 32.324219 C 265.921875 29.621094 262.109375 27.960938 258.007812 27.515625 L 257.988281 27.515625 C 254.105469 27.09375 250.597656 24.839844 248.605469 21.480469 C 248.601562 21.476562 248.597656 21.472656 248.597656 21.464844 C 246.492188 17.914062 243.394531 15.128906 239.640625 13.410156 C 235.882812 11.695312 231.75 11.171875 227.6875 11.90625 L 227.671875 11.90625 C 223.828125 12.601562 219.828125 11.425781 216.96875 8.769531 L 216.949219 8.753906 C 213.925781 5.945312 210.167969 4.152344 206.082031 3.566406 C 201.996094 2.984375 197.886719 3.652344 194.199219 5.503906 C 190.695312 7.257812 186.515625 7.257812 183.015625 5.503906 C 179.324219 3.652344 175.214844 2.984375 171.128906 3.566406 C 167.042969 4.152344 163.285156 5.945312 160.265625 8.75 L 160.246094 8.769531 C 157.386719 11.425781 153.382812 12.597656 149.546875 11.90625 L 149.527344 11.90625 C 145.464844 11.171875 141.332031 11.691406 137.574219 13.410156 C 133.816406 15.128906 130.71875 17.914062 128.617188 21.460938 C 128.617188 21.460938 128.613281 21.46875 128.613281 21.46875 C 126.621094 24.832031 123.109375 27.09375 119.230469 27.511719 L 119.203125 27.515625 C 115.105469 27.960938 111.289062 29.625 108.171875 32.324219 C 105.054688 35.027344 102.871094 38.566406 101.847656 42.570312 L 101.84375 42.578125 C 100.875 46.367188 98.140625 49.523438 94.523438 51.015625 C 94.519531 51.019531 94.507812 51.023438 94.503906 51.027344 C 90.695312 52.601562 87.503906 55.269531 85.273438 58.734375 C 83.039062 62.203125 81.933594 66.21875 82.078125 70.34375 L 82.078125 70.363281 C 82.214844 74.265625 80.480469 78.058594 77.433594 80.515625 C 74.214844 83.105469 71.902344 86.570312 70.738281 90.535156 C 69.578125 94.5 69.65625 98.667969 70.960938 102.585938 C 72.199219 106.292969 71.609375 110.425781 69.382812 113.636719 L 69.363281 113.664062 C 67.015625 117.050781 65.777344 121.019531 65.777344 125.140625 C 65.777344 129.261719 67.015625 133.230469 69.367188 136.621094 L 69.382812 136.644531 C 71.609375 139.855469 72.199219 143.988281 70.960938 147.695312 C 69.652344 151.613281 69.578125 155.78125 70.738281 159.742188 C 71.902344 163.707031 74.214844 167.171875 77.429688 169.761719 C 77.429688 169.765625 77.4375 169.769531 77.441406 169.769531 C 80.480469 172.21875 82.214844 176.011719 82.078125 179.914062 L 82.078125 179.9375 C 81.933594 184.058594 83.039062 188.074219 85.273438 191.542969 C 87.507812 195.015625 90.703125 197.683594 94.523438 199.261719 C 97.828125 200.628906 100.398438 203.382812 101.554688 206.734375 L 55.246094 333.195312 C 54.765625 334.5 55.03125 335.960938 55.933594 337.015625 C 56.839844 338.070312 58.242188 338.554688 59.601562 338.28125 L 112.4375 327.726562 L 146.402344 368.644531 C 147.136719 369.535156 148.222656 370.035156 149.355469 370.035156 C 149.570312 370.035156 149.789062 370.015625 150.007812 369.976562 C 151.363281 369.742188 152.488281 368.804688 152.960938 367.515625 L 187.894531 272.113281 L 226.519531 369.554688 C 227.027344 370.839844 228.1875 371.753906 229.558594 371.945312 C 229.734375 371.96875 229.914062 371.980469 230.089844 371.980469 C 231.273438 371.980469 232.402344 371.429688 233.136719 370.476562 L 264.304688 329.761719 L 315.425781 339.3125 C 316.800781 339.570312 318.207031 339.0625 319.097656 337.980469 C 319.984375 336.902344 320.214844 335.425781 319.699219 334.125 Z M 97.453125 192.164062 C 95.089844 191.1875 93.113281 189.535156 91.730469 187.386719 C 90.347656 185.238281 89.664062 182.753906 89.75 180.203125 L 89.753906 180.179688 C 89.859375 177.070312 89.234375 173.933594 87.9375 171.101562 C 86.644531 168.273438 84.679688 165.742188 82.257812 163.792969 C 82.257812 163.792969 82.25 163.785156 82.25 163.785156 C 80.261719 162.183594 78.828125 160.039062 78.109375 157.585938 C 77.390625 155.132812 77.4375 152.550781 78.246094 150.125 C 79.230469 147.171875 79.519531 143.980469 79.078125 140.894531 C 78.636719 137.8125 77.464844 134.832031 75.691406 132.269531 L 75.675781 132.246094 C 74.222656 130.148438 73.453125 127.691406 73.453125 125.140625 C 73.453125 122.589844 74.222656 120.132812 75.671875 118.039062 L 75.691406 118.011719 C 77.464844 115.449219 78.636719 112.46875 79.078125 109.382812 C 79.519531 106.300781 79.230469 103.109375 78.246094 100.15625 C 78.242188 100.152344 78.242188 100.148438 78.242188 100.148438 C 77.433594 97.722656 77.386719 95.148438 78.105469 92.695312 C 78.824219 90.242188 80.257812 88.097656 82.257812 86.488281 C 84.679688 84.535156 86.644531 82.007812 87.9375 79.175781 C 89.234375 76.347656 89.859375 73.207031 89.75 70.097656 L 89.75 70.078125 C 89.660156 67.523438 90.34375 65.039062 91.730469 62.890625 C 93.113281 60.742188 95.089844 59.089844 97.449219 58.117188 C 97.457031 58.113281 97.464844 58.109375 97.46875 58.109375 C 100.34375 56.917969 102.941406 55.042969 104.984375 52.691406 C 107.027344 50.339844 108.511719 47.496094 109.285156 44.46875 L 109.289062 44.464844 C 109.921875 41.988281 111.273438 39.796875 113.203125 38.125 C 115.132812 36.453125 117.492188 35.421875 120.023438 35.148438 L 120.050781 35.144531 C 123.148438 34.808594 126.167969 33.742188 128.789062 32.054688 C 131.40625 30.367188 133.628906 28.0625 135.214844 25.386719 C 135.214844 25.382812 135.21875 25.378906 135.21875 25.378906 C 136.523438 23.179688 138.441406 21.453125 140.765625 20.390625 C 143.089844 19.328125 145.648438 19.007812 148.164062 19.460938 L 148.179688 19.460938 C 151.242188 20.015625 154.4375 19.84375 157.425781 18.96875 C 160.410156 18.09375 163.191406 16.511719 165.46875 14.398438 L 165.488281 14.378906 C 167.359375 12.640625 169.6875 11.527344 172.214844 11.167969 C 174.746094 10.808594 177.289062 11.21875 179.574219 12.367188 C 182.363281 13.761719 185.484375 14.503906 188.605469 14.503906 C 191.726562 14.503906 194.851562 13.765625 197.640625 12.367188 C 199.921875 11.21875 202.46875 10.808594 204.996094 11.167969 C 207.523438 11.527344 209.851562 12.636719 211.722656 14.375 L 211.738281 14.394531 C 214.019531 16.511719 216.800781 18.09375 219.785156 18.96875 C 222.773438 19.84375 225.96875 20.015625 229.027344 19.464844 L 229.042969 19.460938 C 231.5625 19.007812 234.121094 19.328125 236.445312 20.394531 C 238.769531 21.453125 240.683594 23.179688 241.988281 25.375 C 241.988281 25.378906 241.992188 25.378906 241.992188 25.382812 C 243.582031 28.0625 245.804688 30.371094 248.421875 32.054688 C 251.042969 33.742188 254.0625 34.808594 257.160156 35.144531 L 257.179688 35.148438 C 259.71875 35.421875 262.078125 36.453125 264.007812 38.125 C 265.9375 39.796875 267.292969 41.988281 267.925781 44.46875 L 267.925781 44.476562 C 268.699219 47.496094 270.1875 50.339844 272.226562 52.695312 C 274.269531 55.046875 276.871094 56.921875 279.757812 58.117188 C 282.121094 59.09375 284.097656 60.746094 285.480469 62.894531 C 286.863281 65.039062 287.546875 67.523438 287.457031 70.085938 L 287.457031 70.097656 C 287.351562 73.207031 287.976562 76.347656 289.273438 79.179688 C 290.566406 82.007812 292.53125 84.535156 294.960938 86.496094 C 296.949219 88.097656 298.382812 90.242188 299.101562 92.699219 C 299.820312 95.144531 299.773438 97.71875 298.972656 100.140625 C 298.96875 100.144531 298.96875 100.148438 298.964844 100.15625 C 297.980469 103.109375 297.691406 106.300781 298.132812 109.386719 C 298.574219 112.46875 299.746094 115.449219 301.523438 118.019531 L 301.535156 118.035156 C 302.988281 120.132812 303.757812 122.589844 303.757812 125.140625 C 303.757812 127.691406 302.988281 130.148438 301.535156 132.246094 L 301.519531 132.269531 C 299.746094 134.832031 298.574219 137.816406 298.132812 140.898438 C 297.691406 143.980469 297.980469 147.171875 298.964844 150.128906 C 298.96875 150.128906 298.96875 150.132812 298.96875 150.132812 C 299.777344 152.558594 299.824219 155.132812 299.105469 157.585938 C 298.386719 160.035156 296.957031 162.175781 294.96875 163.78125 C 294.964844 163.785156 294.960938 163.789062 294.953125 163.792969 C 292.53125 165.746094 290.566406 168.273438 289.273438 171.105469 C 287.976562 173.933594 287.351562 177.074219 287.460938 180.175781 L 287.460938 180.203125 C 287.550781 182.757812 286.867188 185.242188 285.480469 187.390625 C 284.097656 189.539062 282.121094 191.1875 279.769531 192.160156 C 279.765625 192.164062 279.753906 192.167969 279.753906 192.167969 C 276.871094 193.359375 274.269531 195.234375 272.226562 197.589844 C 270.1875 199.945312 268.699219 202.785156 267.929688 205.796875 L 267.925781 205.816406 C 267.414062 207.8125 266.433594 209.625 265.0625 211.128906 C 265.042969 211.148438 265.023438 211.167969 265.007812 211.1875 C 264.695312 211.527344 264.363281 211.847656 264.007812 212.15625 C 262.082031 213.828125 259.71875 214.855469 257.1875 215.132812 L 257.160156 215.132812 C 254.066406 215.46875 251.042969 216.539062 248.425781 218.222656 C 245.804688 219.910156 243.582031 222.21875 241.992188 224.898438 C 241.992188 224.902344 241.988281 224.910156 241.984375 224.914062 C 240.679688 227.105469 238.765625 228.828125 236.445312 229.886719 C 234.121094 230.949219 231.566406 231.273438 229.050781 230.820312 L 229.042969 230.820312 C 229.039062 230.820312 229.035156 230.816406 229.03125 230.816406 C 225.96875 230.265625 222.773438 230.4375 219.789062 231.3125 C 216.804688 232.1875 214.019531 233.769531 211.734375 235.890625 L 211.722656 235.902344 C 209.851562 237.640625 207.527344 238.753906 204.996094 239.113281 C 202.46875 239.472656 199.925781 239.058594 197.640625 237.914062 C 197.390625 237.792969 197.140625 237.675781 196.886719 237.5625 C 196.816406 237.523438 196.738281 237.492188 196.664062 237.460938 C 194.132812 236.359375 191.367188 235.777344 188.605469 235.777344 C 185.488281 235.777344 182.363281 236.515625 179.574219 237.914062 C 177.289062 239.058594 174.746094 239.472656 172.214844 239.113281 C 169.6875 238.753906 167.363281 237.640625 165.488281 235.898438 L 165.472656 235.886719 C 163.195312 233.769531 160.410156 232.1875 157.425781 231.3125 C 154.445312 230.441406 151.253906 230.265625 148.195312 230.816406 L 148.183594 230.820312 C 148.179688 230.820312 148.175781 230.820312 148.167969 230.820312 C 145.652344 231.273438 143.09375 230.953125 140.769531 229.890625 C 138.445312 228.828125 136.527344 227.101562 135.222656 224.898438 C 133.632812 222.21875 131.410156 219.914062 128.789062 218.226562 C 126.171875 216.539062 123.148438 215.472656 120.046875 215.136719 L 120.035156 215.132812 C 117.496094 214.859375 115.132812 213.828125 113.207031 212.15625 C 111.277344 210.484375 109.921875 208.292969 109.292969 205.824219 L 109.289062 205.804688 C 108.515625 202.785156 107.027344 199.945312 104.988281 197.589844 C 102.941406 195.230469 100.339844 193.355469 97.453125 192.164062 Z M 184.144531 260.015625 L 148.046875 358.605469 L 116.886719 321.0625 C 115.984375 319.976562 114.5625 319.472656 113.179688 319.746094 L 64.808594 329.410156 L 106.300781 216.105469 C 106.878906 216.757812 107.503906 217.375 108.171875 217.953125 C 111.289062 220.65625 115.101562 222.320312 119.210938 222.765625 L 119.222656 222.765625 C 123.109375 223.1875 126.621094 225.445312 128.617188 228.8125 C 130.71875 232.367188 133.816406 235.152344 137.574219 236.867188 C 141.324219 238.582031 145.457031 239.105469 149.515625 238.375 L 149.527344 238.375 C 149.535156 238.375 149.539062 238.371094 149.542969 238.371094 C 153.382812 237.679688 157.386719 238.851562 160.25 241.511719 L 160.261719 241.527344 C 163.285156 244.335938 167.042969 246.128906 171.128906 246.710938 C 175.214844 247.292969 179.324219 246.625 183.015625 244.777344 C 185.242188 243.660156 187.746094 243.253906 190.171875 243.558594 Z M 263.394531 321.777344 C 261.972656 321.511719 260.519531 322.070312 259.640625 323.21875 L 231.15625 360.421875 L 191.859375 261.28125 L 197.429688 246.066406 C 199.304688 246.628906 201.246094 246.917969 203.207031 246.917969 C 204.164062 246.917969 205.121094 246.847656 206.082031 246.710938 C 210.167969 246.128906 213.925781 244.335938 216.953125 241.523438 L 216.964844 241.507812 C 219.824219 238.855469 223.824219 237.679688 227.664062 238.371094 L 227.667969 238.371094 C 227.671875 238.375 227.675781 238.375 227.679688 238.375 C 231.746094 239.105469 235.878906 238.585938 239.636719 236.867188 C 243.390625 235.152344 246.488281 232.367188 248.59375 228.8125 C 248.597656 228.808594 248.601562 228.804688 248.605469 228.796875 C 250.597656 225.441406 254.105469 223.1875 257.980469 222.765625 L 258.007812 222.761719 C 260.9375 222.445312 263.71875 221.507812 266.207031 220.011719 L 309.996094 330.488281 Z M 263.394531 321.777344 " fill-opacity="1" fill-rule="nonzero"/></g></svg>