<svg xmlns="http://www.w3.org/2000/svg" xmlns:xlink="http://www.w3.org/1999/xlink" width="1080" zoomAndPan="magnify" viewBox="0 0 810 809.999993" height="1080" preserveAspectRatio="xMidYMid meet" version="1.0"><path fill="#d7dadc" d="M 386.488281 27.136719 C 173.035156 27.136719 0 170.660156 0 347.699219 C 0 452.648438 61.070312 545.523438 155.046875 604.003906 C 151.992188 647.96875 135.707031 707.027344 74.976562 738.71875 C 64.5625 744.152344 69.644531 760.363281 81.335938 759.265625 C 138.949219 753.878906 218.75 731.101562 268.734375 653 C 305.875 662.84375 345.398438 668.261719 386.472656 668.261719 C 599.921875 668.261719 772.941406 524.738281 772.941406 347.683594 C 772.960938 170.660156 599.921875 27.136719 386.488281 27.136719 Z M 386.488281 27.136719 " fill-opacity="1" fill-rule="nonzero"/><path fill="#e4795b" d="M 551.644531 292.121094 C 694.320312 292.121094 810 388.066406 810 506.421875 C 810 576.570312 769.179688 638.667969 706.355469 677.753906 C 708.394531 707.144531 719.28125 746.621094 759.882812 767.789062 C 766.832031 771.421875 763.441406 782.261719 755.628906 781.535156 C 717.121094 777.921875 663.777344 762.707031 630.347656 710.503906 C 605.527344 717.089844 579.097656 720.703125 551.644531 720.703125 C 408.964844 720.703125 293.304688 624.753906 293.304688 506.402344 C 293.304688 388.050781 408.964844 292.121094 551.644531 292.121094 Z M 551.644531 292.121094 " fill-opacity="1" fill-rule="nonzero"/><path fill="#ffffff" d="M 453.632812 506.402344 C 453.632812 507.546875 453.578125 508.691406 453.464844 509.828125 C 453.351562 510.96875 453.1875 512.097656 452.960938 513.222656 C 452.738281 514.34375 452.460938 515.453125 452.128906 516.546875 C 451.796875 517.644531 451.414062 518.71875 450.976562 519.777344 C 450.535156 520.835938 450.046875 521.867188 449.507812 522.878906 C 448.96875 523.886719 448.382812 524.867188 447.746094 525.820312 C 447.109375 526.769531 446.429688 527.6875 445.703125 528.574219 C 444.980469 529.457031 444.210938 530.304688 443.402344 531.117188 C 442.59375 531.925781 441.746094 532.691406 440.863281 533.417969 C 439.976562 534.144531 439.058594 534.824219 438.109375 535.460938 C 437.15625 536.097656 436.179688 536.683594 435.167969 537.226562 C 434.160156 537.765625 433.128906 538.253906 432.070312 538.691406 C 431.011719 539.128906 429.9375 539.515625 428.84375 539.847656 C 427.746094 540.179688 426.640625 540.457031 425.515625 540.679688 C 424.394531 540.902344 423.265625 541.070312 422.125 541.183594 C 420.988281 541.296875 419.847656 541.351562 418.703125 541.351562 C 417.558594 541.351562 416.417969 541.296875 415.277344 541.183594 C 414.140625 541.070312 413.007812 540.902344 411.886719 540.679688 C 410.765625 540.457031 409.65625 540.179688 408.5625 539.847656 C 407.46875 539.515625 406.390625 539.128906 405.335938 538.691406 C 404.277344 538.253906 403.246094 537.765625 402.234375 537.226562 C 401.226562 536.683594 400.246094 536.097656 399.296875 535.460938 C 398.34375 534.824219 397.425781 534.144531 396.542969 533.417969 C 395.65625 532.691406 394.8125 531.925781 394.003906 531.117188 C 393.195312 530.304688 392.425781 529.457031 391.699219 528.574219 C 390.972656 527.6875 390.292969 526.769531 389.65625 525.820312 C 389.023438 524.867188 388.433594 523.886719 387.894531 522.878906 C 387.355469 521.867188 386.867188 520.835938 386.429688 519.777344 C 385.992188 518.71875 385.609375 517.644531 385.273438 516.546875 C 384.941406 515.453125 384.664062 514.34375 384.441406 513.222656 C 384.21875 512.097656 384.050781 510.96875 383.9375 509.828125 C 383.828125 508.691406 383.769531 507.546875 383.769531 506.402344 C 383.769531 505.257812 383.828125 504.117188 383.9375 502.976562 C 384.050781 501.839844 384.21875 500.707031 384.441406 499.585938 C 384.664062 498.460938 384.941406 497.351562 385.273438 496.257812 C 385.609375 495.164062 385.992188 494.085938 386.429688 493.027344 C 386.867188 491.972656 387.355469 490.9375 387.894531 489.929688 C 388.433594 488.917969 389.023438 487.9375 389.65625 486.988281 C 390.292969 486.035156 390.972656 485.117188 391.699219 484.230469 C 392.425781 483.347656 393.195312 482.5 394.003906 481.691406 C 394.8125 480.882812 395.65625 480.113281 396.542969 479.386719 C 397.425781 478.660156 398.34375 477.980469 399.296875 477.34375 C 400.246094 476.707031 401.226562 476.121094 402.234375 475.582031 C 403.246094 475.042969 404.277344 474.554688 405.335938 474.113281 C 406.390625 473.675781 407.46875 473.292969 408.5625 472.960938 C 409.65625 472.628906 410.765625 472.347656 411.886719 472.125 C 413.007812 471.902344 414.140625 471.734375 415.277344 471.621094 C 416.417969 471.511719 417.558594 471.453125 418.703125 471.453125 C 419.847656 471.453125 420.988281 471.511719 422.125 471.621094 C 423.265625 471.734375 424.394531 471.902344 425.515625 472.125 C 426.640625 472.347656 427.746094 472.628906 428.84375 472.960938 C 429.9375 473.292969 431.011719 473.675781 432.070312 474.113281 C 433.128906 474.554688 434.160156 475.042969 435.167969 475.582031 C 436.179688 476.121094 437.15625 476.707031 438.109375 477.34375 C 439.058594 477.980469 439.976562 478.660156 440.863281 479.386719 C 441.746094 480.113281 442.59375 480.882812 443.402344 481.691406 C 444.210938 482.5 444.980469 483.347656 445.703125 484.230469 C 446.429688 485.117188 447.109375 486.035156 447.746094 486.988281 C 448.382812 487.9375 448.96875 488.917969 449.507812 489.929688 C 450.046875 490.9375 450.535156 491.972656 450.976562 493.027344 C 451.414062 494.085938 451.796875 495.164062 452.128906 496.257812 C 452.460938 497.351562 452.738281 498.460938 452.960938 499.585938 C 453.1875 500.707031 453.351562 501.839844 453.464844 502.976562 C 453.578125 504.117188 453.632812 505.257812 453.632812 506.402344 Z M 453.632812 506.402344 " fill-opacity="1" fill-rule="nonzero"/><path fill="#ffffff" d="M 586.59375 506.402344 C 586.59375 507.546875 586.535156 508.691406 586.421875 509.828125 C 586.3125 510.96875 586.144531 512.097656 585.921875 513.222656 C 585.699219 514.34375 585.417969 515.453125 585.085938 516.546875 C 584.753906 517.644531 584.371094 518.71875 583.933594 519.777344 C 583.496094 520.835938 583.007812 521.867188 582.46875 522.878906 C 581.929688 523.886719 581.339844 524.867188 580.703125 525.820312 C 580.070312 526.769531 579.386719 527.6875 578.664062 528.574219 C 577.9375 529.457031 577.167969 530.304688 576.359375 531.117188 C 575.550781 531.925781 574.707031 532.691406 573.820312 533.417969 C 572.9375 534.144531 572.019531 534.824219 571.066406 535.460938 C 570.117188 536.097656 569.136719 536.683594 568.128906 537.226562 C 567.117188 537.765625 566.085938 538.253906 565.027344 538.691406 C 563.972656 539.128906 562.894531 539.515625 561.800781 539.847656 C 560.707031 540.179688 559.597656 540.457031 558.476562 540.679688 C 557.351562 540.902344 556.222656 541.070312 555.085938 541.183594 C 553.945312 541.296875 552.804688 541.351562 551.660156 541.351562 C 550.515625 541.351562 549.375 541.296875 548.238281 541.183594 C 547.097656 541.070312 545.96875 540.902344 544.847656 540.679688 C 543.722656 540.457031 542.617188 540.179688 541.519531 539.847656 C 540.425781 539.515625 539.351562 539.128906 538.292969 538.691406 C 537.234375 538.253906 536.203125 537.765625 535.195312 537.226562 C 534.183594 536.683594 533.203125 536.097656 532.253906 535.460938 C 531.300781 534.824219 530.386719 534.144531 529.5 533.417969 C 528.617188 532.691406 527.769531 531.925781 526.960938 531.117188 C 526.152344 530.304688 525.382812 529.457031 524.660156 528.574219 C 523.933594 527.6875 523.25 526.769531 522.617188 525.820312 C 521.980469 524.867188 521.394531 523.886719 520.855469 522.878906 C 520.316406 521.867188 519.824219 520.835938 519.386719 519.777344 C 518.949219 518.71875 518.566406 517.644531 518.234375 516.546875 C 517.902344 515.453125 517.625 514.34375 517.402344 513.222656 C 517.175781 512.097656 517.007812 510.96875 516.898438 509.828125 C 516.785156 508.691406 516.730469 507.546875 516.730469 506.402344 C 516.730469 505.257812 516.785156 504.117188 516.898438 502.976562 C 517.007812 501.839844 517.175781 500.707031 517.402344 499.585938 C 517.625 498.460938 517.902344 497.351562 518.234375 496.257812 C 518.566406 495.164062 518.949219 494.085938 519.386719 493.027344 C 519.824219 491.972656 520.316406 490.9375 520.855469 489.929688 C 521.394531 488.917969 521.980469 487.9375 522.617188 486.988281 C 523.25 486.035156 523.933594 485.117188 524.660156 484.230469 C 525.382812 483.347656 526.152344 482.5 526.960938 481.691406 C 527.769531 480.882812 528.617188 480.113281 529.5 479.386719 C 530.386719 478.660156 531.300781 477.980469 532.253906 477.34375 C 533.203125 476.707031 534.183594 476.121094 535.195312 475.582031 C 536.203125 475.042969 537.234375 474.554688 538.292969 474.113281 C 539.351562 473.675781 540.425781 473.292969 541.519531 472.960938 C 542.617188 472.628906 543.722656 472.347656 544.847656 472.125 C 545.96875 471.902344 547.097656 471.734375 548.238281 471.621094 C 549.375 471.511719 550.515625 471.453125 551.660156 471.453125 C 552.804688 471.453125 553.945312 471.511719 555.085938 471.621094 C 556.222656 471.734375 557.351562 471.902344 558.476562 472.125 C 559.597656 472.347656 560.707031 472.628906 561.800781 472.960938 C 562.894531 473.292969 563.972656 473.675781 565.027344 474.113281 C 566.085938 474.554688 567.117188 475.042969 568.128906 475.582031 C 569.136719 476.121094 570.117188 476.707031 571.066406 477.34375 C 572.019531 477.980469 572.9375 478.660156 573.820312 479.386719 C 574.707031 480.113281 575.550781 480.882812 576.359375 481.691406 C 577.167969 482.5 577.9375 483.347656 578.664062 484.230469 C 579.386719 485.117188 580.070312 486.035156 580.703125 486.988281 C 581.339844 487.9375 581.929688 488.917969 582.46875 489.929688 C 583.007812 490.9375 583.496094 491.972656 583.933594 493.027344 C 584.371094 494.085938 584.753906 495.164062 585.085938 496.257812 C 585.417969 497.351562 585.699219 498.460938 585.921875 499.585938 C 586.144531 500.707031 586.3125 501.839844 586.421875 502.976562 C 586.535156 504.117188 586.59375 505.257812 586.59375 506.402344 Z M 586.59375 506.402344 " fill-opacity="1" fill-rule="nonzero"/><path fill="#ffffff" d="M 719.53125 506.402344 C 719.53125 507.546875 719.476562 508.691406 719.363281 509.828125 C 719.253906 510.96875 719.085938 512.097656 718.863281 513.222656 C 718.636719 514.34375 718.359375 515.453125 718.027344 516.546875 C 717.695312 517.644531 717.3125 518.71875 716.875 519.777344 C 716.4375 520.835938 715.949219 521.867188 715.410156 522.878906 C 714.867188 523.886719 714.28125 524.867188 713.644531 525.820312 C 713.011719 526.769531 712.328125 527.6875 711.605469 528.574219 C 710.878906 529.457031 710.109375 530.304688 709.300781 531.117188 C 708.492188 531.925781 707.644531 532.691406 706.761719 533.417969 C 705.878906 534.144531 704.960938 534.824219 704.007812 535.460938 C 703.058594 536.097656 702.078125 536.683594 701.066406 537.226562 C 700.058594 537.765625 699.027344 538.253906 697.96875 538.691406 C 696.914062 539.128906 695.835938 539.515625 694.742188 539.847656 C 693.648438 540.179688 692.539062 540.457031 691.417969 540.679688 C 690.292969 540.902344 689.164062 541.070312 688.027344 541.183594 C 686.886719 541.296875 685.746094 541.351562 684.601562 541.351562 C 683.457031 541.351562 682.316406 541.296875 681.179688 541.183594 C 680.039062 541.070312 678.910156 540.902344 677.785156 540.679688 C 676.664062 540.457031 675.554688 540.179688 674.460938 539.847656 C 673.367188 539.515625 672.292969 539.128906 671.234375 538.691406 C 670.175781 538.253906 669.144531 537.765625 668.136719 537.226562 C 667.125 536.683594 666.144531 536.097656 665.195312 535.460938 C 664.242188 534.824219 663.324219 534.144531 662.441406 533.417969 C 661.558594 532.691406 660.710938 531.925781 659.902344 531.117188 C 659.09375 530.304688 658.324219 529.457031 657.597656 528.574219 C 656.875 527.6875 656.191406 526.769531 655.558594 525.820312 C 654.921875 524.867188 654.335938 523.886719 653.796875 522.878906 C 653.257812 521.867188 652.765625 520.835938 652.328125 519.777344 C 651.890625 518.71875 651.507812 517.644531 651.175781 516.546875 C 650.84375 515.453125 650.566406 514.34375 650.339844 513.222656 C 650.117188 512.097656 649.949219 510.96875 649.839844 509.828125 C 649.726562 508.691406 649.671875 507.546875 649.671875 506.402344 C 649.671875 505.257812 649.726562 504.117188 649.839844 502.976562 C 649.949219 501.839844 650.117188 500.707031 650.339844 499.585938 C 650.566406 498.460938 650.84375 497.351562 651.175781 496.257812 C 651.507812 495.164062 651.890625 494.085938 652.328125 493.027344 C 652.765625 491.972656 653.257812 490.9375 653.796875 489.929688 C 654.335938 488.917969 654.921875 487.9375 655.558594 486.988281 C 656.191406 486.035156 656.875 485.117188 657.597656 484.230469 C 658.324219 483.347656 659.09375 482.5 659.902344 481.691406 C 660.710938 480.882812 661.558594 480.113281 662.441406 479.386719 C 663.324219 478.660156 664.242188 477.980469 665.195312 477.34375 C 666.144531 476.707031 667.125 476.121094 668.136719 475.582031 C 669.144531 475.042969 670.175781 474.554688 671.234375 474.113281 C 672.292969 473.675781 673.367188 473.292969 674.460938 472.960938 C 675.554688 472.628906 676.664062 472.347656 677.785156 472.125 C 678.910156 471.902344 680.039062 471.734375 681.179688 471.621094 C 682.316406 471.511719 683.457031 471.453125 684.601562 471.453125 C 685.746094 471.453125 686.886719 471.511719 688.027344 471.621094 C 689.164062 471.734375 690.292969 471.902344 691.417969 472.125 C 692.539062 472.347656 693.648438 472.628906 694.742188 472.960938 C 695.835938 473.292969 696.914062 473.675781 697.96875 474.113281 C 699.027344 474.554688 700.058594 475.042969 701.066406 475.582031 C 702.078125 476.121094 703.058594 476.707031 704.007812 477.34375 C 704.960938 477.980469 705.878906 478.660156 706.761719 479.386719 C 707.644531 480.113281 708.492188 480.882812 709.300781 481.691406 C 710.109375 482.5 710.878906 483.347656 711.605469 484.230469 C 712.328125 485.117188 713.011719 486.035156 713.644531 486.988281 C 714.28125 487.9375 714.867188 488.917969 715.410156 489.929688 C 715.949219 490.9375 716.4375 491.972656 716.875 493.027344 C 717.3125 494.085938 717.695312 495.164062 718.027344 496.257812 C 718.359375 497.351562 718.636719 498.460938 718.863281 499.585938 C 719.085938 500.707031 719.253906 501.839844 719.363281 502.976562 C 719.476562 504.117188 719.53125 505.257812 719.53125 506.402344 Z M 719.53125 506.402344 " fill-opacity="1" fill-rule="nonzero"/></svg>