<svg xmlns="http://www.w3.org/2000/svg" xmlns:xlink="http://www.w3.org/1999/xlink" width="1080" zoomAndPan="magnify" viewBox="0 0 810 809.999993" height="1080" preserveAspectRatio="xMidYMid meet" version="1.0"><defs><clipPath id="6d171c5c2e"><path d="M 25.03125 25.03125 L 784.78125 25.03125 L 784.78125 784.78125 L 25.03125 784.78125 Z M 25.03125 25.03125 " clip-rule="nonzero"/></clipPath></defs><g clip-path="url(#6d171c5c2e)"><path fill="#fef4e6" d="M 404.742188 93.53125 C 506.117188 93.53125 518.105469 93.867188 558.222656 95.695312 C 595.175781 97.363281 615.320312 103.519531 628.804688 108.847656 C 646.449219 115.671875 659.101562 123.996094 672.417969 137.3125 C 685.734375 150.628906 693.890625 163.28125 700.882812 180.925781 C 706.042969 194.246094 712.203125 214.386719 714.035156 251.507812 C 715.863281 291.628906 716.199219 303.613281 716.199219 404.992188 C 716.199219 506.367188 715.863281 518.355469 714.035156 558.472656 C 712.371094 595.425781 706.210938 615.570312 700.882812 629.054688 C 694.058594 646.699219 685.734375 659.351562 672.417969 672.667969 C 659.101562 685.984375 646.449219 694.140625 628.804688 701.132812 C 615.484375 706.292969 595.34375 712.453125 558.222656 714.285156 C 518.105469 716.113281 506.117188 716.449219 404.742188 716.449219 C 303.363281 716.449219 291.378906 716.113281 251.257812 714.285156 C 214.304688 712.621094 194.160156 706.460938 180.675781 701.132812 C 163.03125 694.308594 150.378906 685.984375 137.0625 672.667969 C 123.746094 659.351562 115.589844 646.699219 108.597656 629.054688 C 103.4375 615.734375 97.277344 595.59375 95.445312 558.472656 C 93.617188 518.355469 93.28125 506.367188 93.28125 404.992188 C 93.28125 303.613281 93.617188 291.628906 95.445312 251.507812 C 97.113281 214.554688 103.269531 194.410156 108.597656 180.925781 C 115.421875 163.28125 123.746094 150.628906 137.0625 137.3125 C 150.378906 123.996094 163.03125 115.839844 180.675781 108.847656 C 193.996094 103.6875 214.136719 97.527344 251.257812 95.695312 C 291.378906 93.867188 303.363281 93.53125 404.742188 93.53125 M 404.742188 25.117188 C 301.53125 25.117188 288.714844 25.613281 248.097656 27.445312 C 207.644531 29.277344 180.011719 35.769531 155.875 45.089844 C 130.90625 54.746094 109.761719 67.730469 88.621094 88.871094 C 67.648438 110.011719 54.664062 131.152344 45.007812 156.125 C 35.6875 180.261719 29.195312 207.894531 27.363281 248.347656 C 25.53125 288.796875 25.03125 301.78125 25.03125 404.824219 C 25.03125 508.03125 25.53125 520.851562 27.363281 561.46875 C 29.195312 601.917969 35.6875 629.550781 45.007812 653.691406 C 54.664062 678.660156 67.648438 699.800781 88.789062 720.941406 C 109.929688 742.082031 131.070312 755.066406 156.039062 764.722656 C 180.179688 774.046875 207.8125 780.539062 248.261719 782.367188 C 288.714844 784.199219 301.699219 784.699219 404.90625 784.699219 C 508.117188 784.699219 520.933594 784.199219 561.550781 782.367188 C 602.003906 780.539062 629.636719 774.046875 653.773438 764.722656 C 678.742188 755.066406 699.882812 742.082031 721.027344 720.941406 C 742.167969 699.800781 755.152344 678.660156 764.804688 653.691406 C 774.128906 629.550781 780.621094 601.917969 782.453125 561.46875 C 784.28125 521.015625 784.78125 508.03125 784.78125 404.824219 C 784.78125 301.613281 784.28125 288.796875 782.453125 248.179688 C 780.621094 207.726562 774.128906 180.09375 764.804688 155.957031 C 755.152344 130.988281 742.167969 109.847656 721.027344 88.707031 C 699.882812 67.5625 678.742188 54.578125 653.773438 44.925781 C 629.636719 35.601562 602.003906 29.109375 561.550781 27.28125 C 520.933594 25.613281 507.949219 25.117188 404.742188 25.117188 " fill-opacity="1" fill-rule="nonzero"/></g><path fill="#fef4e6" d="M 404.742188 209.890625 C 297.039062 209.890625 209.808594 297.121094 209.808594 404.824219 C 209.808594 512.527344 297.203125 599.921875 404.90625 599.921875 C 512.609375 599.921875 600.003906 512.695312 600.003906 404.824219 C 599.839844 297.121094 512.445312 209.890625 404.742188 209.890625 M 404.742188 531.503906 C 334.824219 531.503906 278.226562 474.90625 278.226562 404.992188 C 278.226562 335.074219 334.824219 278.476562 404.742188 278.476562 C 474.65625 278.476562 531.253906 335.074219 531.253906 404.992188 C 531.421875 474.738281 474.65625 531.503906 404.742188 531.503906 " fill-opacity="1" fill-rule="nonzero"/><path fill="#fef4e6" d="M 653.109375 202.234375 C 653.109375 227.371094 632.632812 247.847656 607.496094 247.847656 C 582.359375 247.847656 561.882812 227.371094 561.882812 202.234375 C 561.882812 177.097656 582.359375 156.625 607.496094 156.625 C 632.632812 156.625 653.109375 176.933594 653.109375 202.234375 " fill-opacity="1" fill-rule="nonzero"/></svg>