<svg xmlns="http://www.w3.org/2000/svg" xmlns:xlink="http://www.w3.org/1999/xlink" width="1920" zoomAndPan="magnify" viewBox="0 0 1440 1439.999935" height="1920" preserveAspectRatio="xMidYMid meet" version="1.0"><defs><clipPath id="cb8862cfaf"><path d="M 1007 787 L 1440 787 L 1440 1219.050781 L 1007 1219.050781 Z M 1007 787 " clip-rule="nonzero"/></clipPath></defs><g clip-path="url(#cb8862cfaf)"><path fill="#b52446" d="M 1185.3125 892.691406 C 1184.675781 892.691406 1184.011719 892.796875 1183.457031 892.984375 L 1181.628906 894.386719 L 1181.628906 1112.238281 L 1178.234375 1123.800781 L 1183.457031 1113.59375 C 1184.753906 1114.070312 1186.320312 1114.015625 1187.566406 1113.40625 L 1314.667969 1003.832031 C 1314.667969 1003.832031 1314.691406 1003.832031 1314.71875 1003.832031 C 1315.117188 1003.484375 1315.195312 1003.273438 1315.195312 1003.273438 L 1188.46875 893.671875 C 1187.726562 893.035156 1186.53125 892.691406 1185.3125 892.691406 Z M 1185.285156 1136.789062 C 1182.050781 1136.789062 1178.816406 1136.261719 1175.714844 1135.144531 C 1175.34375 1135.015625 1173.671875 1134.296875 1173.328125 1134.164062 C 1164.316406 1129.84375 1158.71875 1121.441406 1158.71875 1112.238281 L 1158.71875 894.335938 C 1158.71875 884.285156 1165.535156 875.113281 1175.660156 871.453125 C 1184.96875 868.0625 1195.835938 869.96875 1203.3125 876.253906 L 1329.617188 985.324219 C 1335.054688 990.097656 1338.101562 996.699219 1338.078125 1003.460938 C 1338.050781 1010.167969 1334.949219 1016.636719 1329.617188 1021.222656 L 1203.445312 1130.160156 C 1201.644531 1131.699219 1199.550781 1133.078125 1197.324219 1134.113281 C 1193.585938 1135.886719 1189.449219 1136.789062 1185.285156 1136.789062 Z M 1223.359375 809.972656 C 1215.960938 809.972656 1208.667969 810.398438 1201.511719 811.21875 C 1187.671875 812.730469 1173.964844 815.832031 1160.710938 820.339844 C 1131.8125 830.226562 1105.296875 847.144531 1084.0625 869.203125 C 1062.824219 891.207031 1046.972656 918.195312 1038.167969 947.28125 C 1035.863281 954.890625 1034.007812 962.84375 1032.65625 970.875 C 1030.824219 981.507812 1029.921875 992.429688 1029.921875 1003.300781 C 1029.921875 1044.5 1042.703125 1083.84375 1066.933594 1117.039062 C 1103.230469 1166.90625 1161.714844 1196.679688 1223.359375 1196.679688 C 1329.964844 1196.679688 1416.683594 1109.933594 1416.683594 1003.300781 C 1416.683594 896.695312 1329.964844 809.972656 1223.359375 809.972656 Z M 1223.359375 1219.589844 C 1154.425781 1219.589844 1089.019531 1186.289062 1048.402344 1130.53125 C 1021.332031 1093.390625 1007.015625 1049.378906 1007.015625 1003.300781 C 1007.015625 991.132812 1008.050781 978.9375 1010.066406 967.058594 C 1011.578125 958.070312 1013.671875 949.164062 1016.269531 940.625 C 1026.105469 908.121094 1043.816406 877.898438 1067.542969 853.320312 C 1091.328125 828.636719 1120.96875 809.734375 1153.285156 798.703125 C 1168.160156 793.613281 1183.507812 790.167969 1198.941406 788.445312 C 1206.921875 787.542969 1215.085938 787.066406 1223.359375 787.066406 C 1342.582031 787.066406 1439.566406 884.074219 1439.566406 1003.300781 C 1439.566406 1122.578125 1342.582031 1219.589844 1223.359375 1219.589844 " fill-opacity="1" fill-rule="nonzero"/></g><path fill="#b52446" d="M 1200.1875 757.53125 L 1200.425781 757.53125 Z M 219.019531 243.988281 C 190.066406 243.988281 166.523438 267.53125 166.523438 296.480469 L 166.523438 897.597656 C 166.523438 916.871094 182.191406 932.511719 201.464844 932.511719 L 974.832031 932.511719 C 980.796875 911.542969 989.386719 891.523438 1000.46875 872.699219 L 198.285156 872.699219 C 191.949219 872.699219 186.832031 867.582031 186.832031 861.273438 L 186.832031 315.253906 C 186.832031 308.941406 191.949219 303.824219 198.285156 303.824219 L 1156.996094 303.824219 C 1163.332031 303.824219 1168.449219 308.941406 1168.449219 315.253906 L 1168.449219 750.851562 C 1175.160156 749.417969 1181.945312 748.226562 1188.757812 747.324219 L 1188.757812 296.480469 C 1188.757812 267.53125 1165.214844 243.988281 1136.265625 243.988281 Z M 983.605469 955.417969 L 201.464844 955.417969 C 169.574219 955.417969 143.644531 929.464844 143.644531 897.597656 L 143.644531 296.480469 C 143.644531 254.910156 177.445312 221.082031 219.019531 221.082031 L 1136.265625 221.082031 C 1177.835938 221.082031 1211.640625 254.910156 1211.640625 296.480469 L 1211.640625 757.53125 C 1211.640625 763.46875 1207.132812 768.402344 1201.246094 768.929688 C 1187.378906 770.203125 1173.539062 772.75 1160.074219 776.539062 C 1156.574219 777.496094 1152.914062 776.777344 1150.078125 774.632812 C 1147.214844 772.457031 1145.542969 769.089844 1145.542969 765.511719 L 1145.542969 326.707031 L 209.738281 326.707031 L 209.738281 849.820312 L 1021.464844 849.820312 C 1025.761719 849.820312 1029.683594 852.207031 1031.648438 856 C 1033.609375 859.789062 1033.289062 864.375 1030.824219 867.847656 C 1013.882812 891.84375 1001.742188 918.40625 994.742188 946.722656 C 993.46875 951.839844 988.882812 955.417969 983.605469 955.417969 " fill-opacity="1" fill-rule="nonzero"/><path fill="#b52446" d="M 24.445312 980.421875 C 27.121094 1014.410156 41.648438 1045.984375 66.015625 1070.351562 C 93.085938 1097.445312 129.089844 1112.347656 167.371094 1112.347656 L 989.121094 1112.347656 C 973.265625 1078.382812 964.941406 1041.054688 964.941406 1003.300781 C 964.941406 995.691406 965.261719 988.03125 965.949219 980.421875 L 834.820312 980.421875 C 823.632812 1011.757812 794.070312 1032.941406 760.054688 1032.941406 L 595.226562 1032.941406 C 561.210938 1032.941406 531.652344 1011.757812 520.464844 980.421875 Z M 1007.839844 1135.253906 L 167.371094 1135.253906 C 122.988281 1135.253906 81.234375 1117.964844 49.816406 1086.550781 C 18.398438 1055.160156 1.113281 1013.402344 1.113281 968.992188 C 1.113281 962.65625 6.230469 957.539062 12.566406 957.539062 L 529.027344 957.539062 C 534.355469 957.539062 538.96875 961.199219 540.160156 966.394531 C 546.152344 992.085938 568.792969 1010.035156 595.226562 1010.035156 L 760.054688 1010.035156 C 786.488281 1010.035156 809.128906 992.085938 815.121094 966.394531 C 816.3125 961.199219 820.925781 957.539062 826.257812 957.539062 L 978.78125 957.539062 C 982.09375 957.539062 985.25 958.972656 987.425781 961.464844 C 989.597656 963.984375 990.578125 967.324219 990.101562 970.558594 C 988.617188 981.320312 987.820312 992.351562 987.820312 1003.300781 C 987.820312 1043.546875 998.214844 1083.289062 1017.835938 1118.179688 C 1019.824219 1121.730469 1019.796875 1126.078125 1017.726562 1129.578125 C 1015.6875 1133.105469 1011.921875 1135.253906 1007.839844 1135.253906 " fill-opacity="1" fill-rule="nonzero"/><path fill="#b52446" d="M 654.351562 618.738281 C 663.074219 609.75 666.070312 596.601562 662.410156 585.121094 L 797.171875 493.628906 C 800.195312 491.664062 800.832031 487.636719 798.867188 484.640625 L 792.613281 475.253906 C 791.578125 473.824219 790.144531 472.894531 788.449219 472.496094 C 786.753906 472.257812 784.949219 472.628906 783.492188 473.558594 L 646.769531 566.351562 C 642.472656 564.019531 637.382812 562.558594 632.320312 562.425781 C 626.589844 562.1875 621.105469 563.355469 616.277344 565.6875 C 613.148438 567.144531 610.152344 569.082031 607.421875 571.8125 L 583.058594 588.382812 C 575.105469 517.59375 493.128906 517.355469 491.300781 517.355469 L 456.886719 517.355469 C 455.058594 517.355469 453.226562 518.125 452.0625 519.425781 L 433.820312 540.023438 C 432.125 541.984375 431.726562 544.71875 432.785156 547.050781 C 433.023438 547.316406 433.15625 547.582031 433.289062 547.84375 C 434.722656 551.875 436.683594 556.0625 439.015625 560.09375 C 438.777344 560.226562 438.378906 560.226562 438.117188 560.359375 C 435.253906 561.128906 433.289062 563.886719 433.421875 566.882812 L 436.949219 646.101562 L 428.332031 664.234375 L 420.378906 646.894531 L 424.832031 546.148438 C 424.9375 544.453125 424.300781 542.753906 423.136719 541.457031 L 403.570312 519.425781 C 402.269531 518.125 400.574219 517.355469 398.613281 517.355469 L 365.390625 517.355469 C 332.277344 517.859375 307.25 526.980469 290.972656 544.453125 C 271.300781 565.449219 272.335938 590.847656 272.335938 591.511719 L 272.335938 745.679688 C 272.335938 746.078125 272.335938 746.476562 272.464844 746.875 L 272.335938 746.875 C 272.335938 765.113281 287.046875 779.960938 305.316406 779.960938 C 323.421875 779.960938 338.269531 765.113281 338.269531 746.875 L 338.269531 609.617188 L 341.796875 609.617188 L 341.664062 802.523438 L 354.707031 802.523438 L 354.839844 603.097656 C 354.839844 601.398438 354.046875 599.730469 352.878906 598.535156 C 351.710938 597.238281 350.015625 596.601562 348.320312 596.601562 L 331.773438 596.601562 C 328.117188 596.601562 325.253906 599.464844 325.253906 603.097656 L 325.253906 745.175781 C 325.121094 745.8125 325.121094 746.34375 325.253906 746.875 C 325.253906 757.929688 316.265625 766.941406 305.316406 766.941406 C 294.367188 766.941406 285.351562 757.929688 285.351562 745.679688 L 285.351562 591.246094 C 285.351562 591.113281 284.714844 570.117188 300.621094 553.175781 C 314.4375 538.59375 336.335938 530.902344 365.523438 530.375 L 395.75 530.375 L 411.65625 548.109375 L 407.230469 647.929688 C 407.230469 648.988281 407.363281 650.023438 407.890625 650.925781 L 422.339844 682.210938 C 423.375 684.570312 425.335938 686.132812 428.199219 686 C 430.824219 686 433.023438 684.570312 434.21875 682.34375 L 449.464844 650.289062 C 449.859375 649.359375 450.097656 648.195312 450.097656 647.160156 L 447.632812 592.808594 C 448.164062 593.472656 448.800781 594.109375 449.464844 594.640625 L 461.976562 602.59375 C 464.042969 603.890625 466.90625 603.890625 469.003906 602.59375 C 471.097656 601.136719 472.261719 598.667969 472 596.203125 L 470.035156 581.066406 C 469.902344 579.632812 469.269531 578.335938 468.339844 577.433594 C 468.101562 577.167969 451.929688 560.09375 446.335938 545.484375 L 459.75 530.375 L 491.433594 530.375 C 494.296875 530.242188 565.1875 530.375 570.28125 591.511719 L 570.28125 600.632812 C 570.28125 602.964844 571.710938 605.191406 573.804688 606.359375 C 575.875 607.523438 578.5 607.390625 580.566406 605.960938 L 615.113281 582.257812 C 615.507812 581.992188 615.878906 581.726562 616.144531 581.332031 C 617.84375 579.765625 619.671875 578.46875 621.898438 577.433594 C 624.894531 576 628.289062 575.339844 631.789062 575.472656 C 635.050781 575.605469 638.046875 576.371094 640.777344 577.832031 C 641.570312 578.203125 642.339844 578.730469 643.003906 579.261719 C 644.566406 580.429688 646.394531 580.828125 648.226562 580.429688 C 647.5625 582.125 647.695312 584.085938 648.597656 585.757812 C 652.785156 593.472656 651.222656 603.363281 644.964844 609.882812 L 560.097656 666.699219 C 559.859375 666.832031 559.460938 666.964844 559.199219 667.097656 C 556.070312 668.792969 553.207031 669.457031 550.476562 669.457031 C 539.394531 669.457031 530.511719 660.574219 530.511719 649.492188 L 530.511719 602.460938 C 530.511719 598.800781 527.648438 595.9375 524.015625 595.9375 L 506.808594 595.9375 C 505.113281 595.9375 503.414062 596.601562 502.117188 597.769531 C 500.921875 599.066406 500.285156 600.765625 500.285156 602.460938 L 500.417969 802.523438 L 513.464844 802.523438 L 513.332031 608.984375 L 517.492188 608.984375 L 517.492188 649.492188 C 517.492188 672.1875 541.089844 689.898438 563.625 679.480469 C 564.421875 679.347656 565.1875 678.949219 565.984375 678.445312 L 652.917969 620.171875 C 653.421875 619.800781 653.953125 619.269531 654.351562 618.738281 " fill-opacity="1" fill-rule="nonzero"/><path fill="#b52446" d="M 435.515625 755.859375 L 419.609375 755.859375 C 415.953125 755.859375 413.089844 758.855469 413.089844 762.382812 L 413.089844 802.523438 L 426.132812 802.523438 L 426.132812 768.878906 L 428.996094 768.878906 L 428.996094 802.523438 L 442.011719 802.523438 L 442.011719 762.382812 C 442.011719 758.855469 439.015625 755.859375 435.515625 755.859375 " fill-opacity="1" fill-rule="nonzero"/><path fill="#b52446" d="M 1069.929688 766.199219 C 1069.929688 773.042969 1065.078125 778.609375 1059.113281 778.609375 L 601.671875 778.609375 C 595.703125 778.609375 590.851562 773.042969 590.851562 766.199219 L 590.851562 692.074219 L 612.515625 677.515625 L 612.515625 747.269531 C 612.515625 750.875 615.429688 753.792969 619.035156 753.792969 L 1041.75 753.792969 C 1045.328125 753.792969 1048.242188 750.875 1048.242188 747.269531 L 1048.242188 418.359375 C 1048.242188 414.753906 1045.328125 411.835938 1041.75 411.835938 L 619.035156 411.835938 C 615.429688 411.835938 612.515625 414.753906 612.515625 418.359375 L 612.515625 540.210938 C 606.707031 542.066406 601.273438 544.824219 596.578125 548.164062 C 594.855469 544.929688 592.949219 541.828125 590.851562 538.882812 L 590.851562 399.402344 C 590.851562 392.589844 595.703125 387.023438 601.671875 387.023438 L 1059.085938 387.023438 C 1065.050781 387.023438 1069.929688 392.589844 1069.929688 399.402344 Z M 1059.085938 373.976562 L 601.671875 373.976562 C 588.519531 373.976562 577.835938 385.378906 577.835938 399.402344 L 577.835938 540.980469 C 577.835938 542.355469 578.285156 543.710938 579.109375 544.847656 C 582.6875 549.726562 585.789062 555.109375 588.253906 560.863281 C 589.050781 562.640625 590.589844 563.992188 592.46875 564.523438 C 594.351562 565.050781 596.367188 564.734375 597.984375 563.59375 L 599.921875 562.1875 C 605.671875 556.964844 612.777344 553.28125 620.492188 551.503906 C 623.4375 550.816406 625.558594 548.191406 625.558594 545.140625 L 625.558594 424.855469 L 1035.226562 424.855469 L 1035.226562 740.777344 L 625.558594 740.777344 L 625.558594 665.296875 C 625.558594 662.910156 624.230469 660.683594 622.085938 659.542969 C 619.964844 658.429688 617.417969 658.5625 615.402344 659.886719 L 580.726562 683.164062 C 578.921875 684.382812 577.835938 686.425781 577.835938 688.574219 L 577.835938 766.199219 C 577.835938 780.226562 588.519531 791.625 601.671875 791.625 L 1059.113281 791.625 C 1072.265625 791.625 1082.976562 780.226562 1082.976562 766.199219 L 1082.976562 399.402344 C 1082.976562 385.378906 1072.265625 373.976562 1059.085938 373.976562 " fill-opacity="1" fill-rule="nonzero"/><path fill="#b52446" d="M 643.878906 642.097656 C 640.273438 642.097656 637.382812 645.011719 637.382812 648.617188 L 637.382812 721.261719 C 637.382812 724.839844 640.273438 727.757812 643.878906 727.757812 L 1016.878906 727.757812 C 1020.484375 727.757812 1023.402344 724.839844 1023.402344 721.261719 L 1023.402344 444.367188 C 1023.402344 440.789062 1020.484375 437.871094 1016.878906 437.871094 L 643.878906 437.871094 C 640.273438 437.871094 637.382812 440.789062 637.382812 444.367188 L 637.382812 545.351562 C 637.382812 548.296875 639.636719 550.949219 642.472656 551.714844 C 642.5 551.714844 642.738281 551.769531 642.789062 551.796875 L 644.355469 545.460938 L 650.398438 545.351562 L 650.398438 450.890625 L 1010.359375 450.890625 L 1010.359375 714.742188 L 650.398438 714.742188 L 650.398438 648.617188 C 650.398438 645.011719 647.484375 642.097656 643.878906 642.097656 " fill-opacity="1" fill-rule="nonzero"/><path fill="#b52446" d="M 427.246094 397.757812 C 457.019531 397.757812 481.25 421.992188 481.25 451.765625 C 481.25 481.566406 457.019531 505.796875 427.246094 505.796875 C 397.472656 505.796875 373.214844 481.566406 373.214844 451.765625 C 373.214844 421.992188 397.472656 397.757812 427.246094 397.757812 Z M 427.246094 518.8125 C 464.230469 518.8125 494.296875 488.75 494.296875 451.765625 C 494.296875 414.804688 464.230469 384.714844 427.246094 384.714844 C 390.261719 384.714844 360.195312 414.804688 360.195312 451.765625 C 360.195312 488.75 390.261719 518.8125 427.246094 518.8125 " fill-opacity="1" fill-rule="nonzero"/></svg>