<svg xmlns="http://www.w3.org/2000/svg" xmlns:xlink="http://www.w3.org/1999/xlink" width="1920" zoomAndPan="magnify" viewBox="0 0 1440 1439.999935" height="1920" preserveAspectRatio="xMidYMid meet" version="1.0"><defs><clipPath id="903226067b"><path d="M 393 1237 L 1048 1237 L 1048 1403.398438 L 393 1403.398438 Z M 393 1237 " clip-rule="nonzero"/></clipPath></defs><g clip-path="url(#903226067b)"><path fill="#b52446" d="M 476.445312 1403.261719 L 963.960938 1403.261719 C 1009.8125 1403.261719 1047.027344 1366.035156 1047.027344 1320.191406 C 1047.027344 1274.347656 1009.8125 1237.125 963.960938 1237.125 L 476.445312 1237.125 C 430.597656 1237.125 393.375 1274.347656 393.375 1320.191406 C 393.375 1366.035156 430.597656 1403.261719 476.445312 1403.261719 Z M 476.445312 1377.730469 C 444.683594 1377.730469 418.902344 1351.953125 418.902344 1320.191406 C 418.902344 1288.433594 444.683594 1262.652344 476.445312 1262.652344 C 476.445312 1262.652344 963.960938 1262.652344 963.960938 1262.652344 C 995.71875 1262.652344 1021.507812 1288.433594 1021.507812 1320.191406 C 1021.507812 1351.953125 995.71875 1377.730469 963.960938 1377.730469 Z M 476.445312 1377.730469 " fill-opacity="1" fill-rule="evenodd"/></g><path fill="#b52446" d="M 529.132812 1246.0625 C 527.917969 1249.941406 528.617188 1254.167969 531.023438 1257.4375 C 533.425781 1260.71875 537.25 1262.652344 541.308594 1262.652344 L 899.09375 1262.652344 C 903.160156 1262.652344 906.980469 1260.71875 909.386719 1257.4375 C 911.789062 1254.167969 912.492188 1249.941406 911.273438 1246.0625 C 898.976562 1206.890625 901.925781 1163.789062 920.832031 1125.90625 C 929.082031 1109.382812 935.085938 1097.34375 935.085938 1097.34375 C 937.066406 1093.386719 936.851562 1088.691406 934.523438 1084.929688 C 932.195312 1081.167969 928.089844 1078.878906 923.667969 1078.878906 L 516.738281 1078.878906 C 512.320312 1078.878906 508.207031 1081.167969 505.886719 1084.929688 C 503.558594 1088.691406 503.34375 1093.386719 505.316406 1097.34375 C 505.316406 1097.34375 511.328125 1109.382812 519.574219 1125.90625 C 538.484375 1163.789062 541.425781 1206.890625 529.128906 1246.0625 Z M 557.871094 1237.125 C 566.644531 1196.378906 561.679688 1153.105469 542.414062 1114.503906 C 542.414062 1114.503906 537.378906 1104.40625 537.378906 1104.40625 C 537.378906 1104.40625 903.035156 1104.40625 903.035156 1104.40625 C 903.035156 1104.40625 897.992188 1114.503906 897.992188 1114.503906 C 878.722656 1153.105469 873.765625 1196.378906 882.539062 1237.117188 Z M 557.871094 1237.125 " fill-opacity="1" fill-rule="evenodd"/><path fill="#b52446" d="M 540.3125 647.765625 C 511.222656 647.765625 487.613281 671.378906 487.613281 700.460938 C 487.613281 729.546875 511.222656 753.160156 540.3125 753.160156 C 569.394531 753.160156 593.011719 729.546875 593.011719 700.460938 C 593.011719 671.378906 569.394531 647.765625 540.3125 647.765625 Z M 540.3125 673.289062 C 555.308594 673.289062 567.480469 685.46875 567.480469 700.460938 C 567.480469 715.457031 555.308594 727.636719 540.3125 727.636719 C 525.3125 727.636719 513.140625 715.457031 513.140625 700.460938 C 513.140625 685.46875 525.3125 673.289062 540.3125 673.289062 Z M 540.3125 673.289062 " fill-opacity="1" fill-rule="evenodd"/><path fill="#b52446" d="M 712.023438 647.765625 C 682.933594 647.765625 659.324219 671.378906 659.324219 700.460938 C 659.324219 729.546875 682.933594 753.160156 712.023438 753.160156 C 741.105469 753.160156 764.722656 729.546875 764.722656 700.460938 C 764.722656 671.378906 741.105469 647.765625 712.023438 647.765625 Z M 712.023438 673.289062 C 727.019531 673.289062 739.195312 685.46875 739.195312 700.460938 C 739.195312 715.457031 727.019531 727.636719 712.023438 727.636719 C 697.027344 727.636719 684.851562 715.457031 684.851562 700.460938 C 684.851562 685.46875 697.027344 673.289062 712.023438 673.289062 Z M 712.023438 673.289062 " fill-opacity="1" fill-rule="evenodd"/><path fill="#b52446" d="M 883.734375 647.765625 C 854.648438 647.765625 831.035156 671.378906 831.035156 700.460938 C 831.035156 729.546875 854.648438 753.160156 883.734375 753.160156 C 912.816406 753.160156 936.433594 729.546875 936.433594 700.460938 C 936.433594 671.378906 912.816406 647.765625 883.734375 647.765625 Z M 883.734375 673.289062 C 898.734375 673.289062 910.90625 685.46875 910.90625 700.460938 C 910.90625 715.457031 898.734375 727.636719 883.734375 727.636719 C 868.738281 727.636719 856.5625 715.457031 856.5625 700.460938 C 856.5625 685.46875 868.738281 673.289062 883.734375 673.289062 Z M 883.734375 673.289062 " fill-opacity="1" fill-rule="evenodd"/><path fill="#b52446" d="M 487.808594 281.265625 C 487.808594 231.921875 447.808594 191.921875 398.464844 191.921875 C 351.445312 191.921875 291.429688 191.921875 244.410156 191.921875 C 195.070312 191.921875 155.0625 231.921875 155.0625 281.265625 C 155.0625 328.285156 155.0625 388.300781 155.0625 435.320312 C 155.0625 484.664062 195.070312 524.664062 244.410156 524.664062 C 291.429688 524.664062 351.445312 524.664062 398.464844 524.664062 C 447.808594 524.664062 487.808594 484.664062 487.808594 435.320312 Z M 462.277344 281.265625 L 462.277344 435.320312 C 462.277344 470.566406 433.710938 499.140625 398.464844 499.140625 C 398.464844 499.140625 244.410156 499.140625 244.410156 499.140625 C 209.164062 499.140625 180.59375 470.566406 180.59375 435.320312 C 180.59375 435.320312 180.59375 281.265625 180.59375 281.265625 C 180.59375 246.019531 209.164062 217.453125 244.410156 217.445312 C 244.410156 217.445312 398.464844 217.445312 398.464844 217.445312 C 433.710938 217.453125 462.277344 246.019531 462.277344 281.265625 Z M 462.277344 281.265625 " fill-opacity="1" fill-rule="evenodd"/><path fill="#b52446" d="M 886.578125 281.265625 C 886.578125 231.921875 846.570312 191.921875 797.230469 191.921875 C 750.210938 191.921875 690.195312 191.921875 643.175781 191.921875 C 593.832031 191.921875 553.832031 231.921875 553.832031 281.265625 C 553.832031 328.285156 553.832031 388.300781 553.832031 435.320312 C 553.832031 484.664062 593.832031 524.664062 643.175781 524.664062 C 690.195312 524.664062 750.210938 524.664062 797.230469 524.664062 C 846.570312 524.664062 886.578125 484.664062 886.578125 435.320312 Z M 861.050781 281.265625 L 861.050781 435.320312 C 861.050781 470.566406 832.476562 499.140625 797.234375 499.140625 C 797.230469 499.140625 643.175781 499.140625 643.175781 499.140625 C 607.929688 499.140625 579.363281 470.566406 579.363281 435.320312 C 579.363281 435.320312 579.363281 281.265625 579.363281 281.265625 C 579.363281 246.019531 607.929688 217.453125 643.175781 217.445312 C 643.175781 217.445312 797.230469 217.445312 797.230469 217.445312 C 832.476562 217.453125 861.050781 246.019531 861.050781 281.265625 Z M 861.050781 281.265625 " fill-opacity="1" fill-rule="evenodd"/><path fill="#b52446" d="M 1285.339844 281.265625 C 1285.339844 231.921875 1245.34375 191.921875 1196 191.921875 C 1148.980469 191.921875 1088.964844 191.921875 1041.945312 191.921875 C 992.601562 191.921875 952.601562 231.921875 952.601562 281.265625 C 952.601562 328.285156 952.601562 388.300781 952.601562 435.320312 C 952.601562 484.664062 992.601562 524.664062 1041.945312 524.664062 C 1088.964844 524.664062 1148.980469 524.664062 1196 524.664062 C 1245.34375 524.664062 1285.339844 484.664062 1285.339844 435.320312 Z M 1259.820312 281.265625 L 1259.820312 435.320312 C 1259.8125 470.566406 1231.246094 499.140625 1196 499.140625 C 1196 499.140625 1041.945312 499.140625 1041.945312 499.140625 C 1006.699219 499.140625 978.125 470.566406 978.125 435.320312 C 978.125 435.320312 978.125 281.265625 978.125 281.265625 C 978.125 246.019531 1006.699219 217.453125 1041.945312 217.445312 C 1041.945312 217.445312 1196 217.445312 1196 217.445312 C 1231.246094 217.453125 1259.8125 246.019531 1259.820312 281.265625 Z M 1259.820312 281.265625 " fill-opacity="1" fill-rule="evenodd"/><path fill="#b52446" d="M 561.859375 1030.578125 L 878.550781 1030.578125 C 905.320312 1030.578125 927.050781 1008.847656 927.050781 982.074219 C 927.050781 955.308594 905.320312 933.578125 878.550781 933.578125 L 561.859375 933.578125 C 535.09375 933.578125 513.355469 955.308594 513.355469 982.074219 C 513.355469 1008.847656 535.09375 1030.578125 561.859375 1030.578125 Z M 561.859375 1005.046875 C 549.175781 1005.046875 538.882812 994.757812 538.882812 982.074219 C 538.882812 969.398438 549.175781 959.101562 561.859375 959.101562 C 561.859375 959.101562 878.550781 959.101562 878.550781 959.101562 C 891.226562 959.101562 901.527344 969.398438 901.527344 982.074219 C 901.527344 994.757812 891.226562 1005.046875 878.550781 1005.046875 Z M 561.859375 1005.046875 " fill-opacity="1" fill-rule="evenodd"/><path fill="#b52446" d="M 572.714844 849 C 590.78125 849 608.417969 854.558594 623.226562 864.917969 C 639.882812 876.566406 661.425781 891.628906 678.175781 903.34375 C 698.503906 917.5625 725.542969 917.5625 745.867188 903.34375 C 762.617188 891.628906 784.15625 876.566406 800.8125 864.917969 C 815.628906 854.558594 833.257812 849 851.332031 849 C 878.820312 849 1033.703125 849 1033.703125 849 C 1077.171875 849 1112.40625 813.769531 1112.40625 770.308594 C 1112.40625 734.945312 1112.40625 665.980469 1112.40625 630.617188 C 1112.40625 587.15625 1077.171875 551.925781 1033.703125 551.925781 C 930.632812 551.925781 493.40625 551.925781 390.335938 551.925781 C 346.875 551.925781 311.640625 587.15625 311.640625 630.617188 C 311.640625 665.980469 311.640625 734.945312 311.640625 770.308594 C 311.640625 813.769531 346.875 849 390.335938 849 C 390.335938 849 545.226562 849 572.714844 849 Z M 572.714844 823.480469 L 390.335938 823.480469 C 360.972656 823.480469 337.164062 799.671875 337.171875 770.308594 C 337.171875 734.945312 337.171875 665.980469 337.171875 630.617188 C 337.164062 601.253906 360.972656 577.449219 390.335938 577.449219 C 493.40625 577.449219 930.632812 577.449219 1033.703125 577.449219 C 1063.074219 577.449219 1086.875 601.253906 1086.875 630.617188 C 1086.875 665.980469 1086.875 734.945312 1086.875 770.308594 C 1086.875 799.671875 1063.074219 823.480469 1033.703125 823.480469 C 1033.703125 823.480469 878.820312 823.480469 851.332031 823.480469 C 828.027344 823.480469 805.285156 830.640625 786.183594 843.996094 L 731.234375 882.425781 C 719.699219 890.496094 704.347656 890.496094 692.804688 882.425781 L 637.863281 843.996094 C 618.761719 830.640625 596.019531 823.480469 572.714844 823.480469 Z M 572.714844 823.480469 " fill-opacity="1" fill-rule="evenodd"/><path fill="#b52446" d="M 1303.941406 37.144531 L 136.464844 37.144531 C 61.578125 37.144531 0.871094 97.851562 0.871094 172.734375 C 0.871094 366.078125 0.871094 775.472656 0.871094 968.808594 C 0.871094 1043.699219 61.578125 1104.40625 136.464844 1104.40625 C 391.597656 1104.40625 1048.8125 1104.40625 1303.941406 1104.40625 C 1378.832031 1104.40625 1439.539062 1043.699219 1439.539062 968.808594 C 1439.539062 775.472656 1439.539062 366.078125 1439.539062 172.734375 C 1439.539062 97.851562 1378.832031 37.144531 1303.941406 37.144531 Z M 1303.941406 62.667969 C 1364.734375 62.667969 1414.007812 111.949219 1414.007812 172.734375 C 1414.007812 172.734375 1414.007812 968.808594 1414.007812 968.808594 C 1414.007812 1029.601562 1364.726562 1078.878906 1303.941406 1078.878906 C 1048.8125 1078.878906 391.597656 1078.878906 136.464844 1078.878906 C 75.675781 1078.878906 26.402344 1029.601562 26.402344 968.816406 C 26.402344 968.808594 26.402344 172.734375 26.402344 172.734375 C 26.402344 111.949219 75.675781 62.667969 136.464844 62.667969 Z M 771.707031 885.277344 L 1335.363281 885.277344 C 1342.414062 885.277344 1348.125 879.5625 1348.125 872.507812 L 1348.125 172.734375 C 1348.125 148.332031 1328.34375 128.550781 1303.941406 128.550781 L 136.464844 128.550781 C 112.0625 128.550781 92.285156 148.332031 92.277344 172.734375 L 92.277344 872.507812 C 92.277344 879.5625 97.996094 885.277344 105.046875 885.277344 L 652.332031 885.277344 C 652.332031 885.277344 678.175781 903.34375 678.175781 903.34375 C 698.503906 917.5625 725.542969 917.5625 745.867188 903.34375 Z M 767.6875 859.746094 C 765.070312 859.746094 762.515625 860.550781 760.375 862.050781 L 731.234375 882.429688 C 719.699219 890.496094 704.347656 890.496094 692.804688 882.429688 L 663.671875 862.050781 C 661.53125 860.550781 658.976562 859.746094 656.359375 859.746094 L 117.808594 859.746094 C 117.808594 859.746094 117.808594 172.734375 117.808594 172.734375 C 117.808594 162.429688 126.160156 154.082031 136.464844 154.082031 C 136.464844 154.082031 1303.941406 154.082031 1303.941406 154.082031 C 1314.246094 154.082031 1322.597656 162.429688 1322.601562 172.734375 C 1322.601562 172.734375 1322.601562 859.746094 1322.601562 859.746094 C 1322.601562 859.746094 767.6875 859.746094 767.6875 859.746094 Z M 767.6875 859.746094 " fill-opacity="1" fill-rule="evenodd"/><path fill="#b52446" d="M 321.4375 240.671875 C 287.726562 240.671875 260.359375 268.039062 260.359375 301.746094 C 260.359375 335.460938 287.726562 362.828125 321.4375 362.828125 C 355.144531 362.828125 382.511719 335.460938 382.511719 301.746094 C 382.511719 268.039062 355.144531 240.671875 321.4375 240.671875 Z M 321.4375 266.195312 C 341.0625 266.195312 356.992188 282.128906 356.992188 301.746094 C 356.992188 321.367188 341.0625 337.296875 321.4375 337.296875 C 301.816406 337.296875 285.886719 321.367188 285.886719 301.746094 C 285.886719 282.128906 301.816406 266.195312 321.4375 266.195312 Z M 321.4375 266.195312 " fill-opacity="1" fill-rule="evenodd"/><path fill="#b52446" d="M 720.203125 240.671875 C 686.496094 240.671875 659.128906 268.039062 659.128906 301.746094 C 659.128906 335.460938 686.496094 362.828125 720.203125 362.828125 C 753.914062 362.828125 781.28125 335.460938 781.28125 301.746094 C 781.28125 268.039062 753.914062 240.671875 720.203125 240.671875 Z M 720.203125 266.195312 C 739.824219 266.195312 755.753906 282.128906 755.753906 301.746094 C 755.753906 321.367188 739.824219 337.296875 720.203125 337.296875 C 700.585938 337.296875 684.652344 321.367188 684.652344 301.746094 C 684.652344 282.128906 700.585938 266.195312 720.203125 266.195312 Z M 720.203125 266.195312 " fill-opacity="1" fill-rule="evenodd"/><path fill="#b52446" d="M 1118.972656 240.671875 C 1085.257812 240.671875 1057.890625 268.039062 1057.890625 301.746094 C 1057.890625 335.460938 1085.257812 362.828125 1118.972656 362.828125 C 1152.679688 362.828125 1180.050781 335.460938 1180.050781 301.746094 C 1180.050781 268.039062 1152.679688 240.671875 1118.972656 240.671875 Z M 1118.972656 266.195312 C 1138.59375 266.195312 1154.523438 282.128906 1154.523438 301.746094 C 1154.523438 321.367188 1138.59375 337.296875 1118.972656 337.296875 C 1099.347656 337.296875 1083.421875 321.367188 1083.421875 301.746094 C 1083.421875 282.128906 1099.347656 266.195312 1118.972656 266.195312 Z M 1118.972656 266.195312 " fill-opacity="1" fill-rule="evenodd"/><path fill="#b52446" d="M 168.664062 468.054688 C 165.746094 472.21875 165.589844 477.714844 168.246094 482.046875 C 183.96875 507.617188 212.199219 524.664062 244.410156 524.664062 L 398.464844 524.664062 C 430.679688 524.664062 458.910156 507.617188 474.625 482.046875 C 477.289062 477.714844 477.125 472.21875 474.214844 468.054688 C 440.523438 419.882812 384.632812 388.355469 321.4375 388.355469 C 258.246094 388.355469 202.351562 419.882812 168.664062 468.054688 Z M 194.867188 475.546875 C 224.316406 438.015625 270.082031 413.878906 321.4375 413.878906 C 372.796875 413.878906 418.5625 438.015625 448.003906 475.546875 C 436.304688 489.945312 418.457031 499.140625 398.464844 499.140625 C 398.464844 499.140625 244.410156 499.140625 244.410156 499.140625 C 224.414062 499.140625 206.574219 489.945312 194.867188 475.554688 Z M 194.867188 475.546875 " fill-opacity="1" fill-rule="evenodd"/><path fill="#b52446" d="M 567.425781 468.054688 C 564.515625 472.21875 564.351562 477.714844 567.015625 482.046875 C 582.730469 507.617188 610.960938 524.664062 643.175781 524.664062 L 797.230469 524.664062 C 829.441406 524.664062 857.671875 507.617188 873.394531 482.046875 C 876.050781 477.714844 875.894531 472.21875 872.976562 468.054688 C 839.289062 419.882812 783.398438 388.355469 720.203125 388.355469 C 657.007812 388.355469 601.117188 419.882812 567.425781 468.054688 Z M 593.636719 475.546875 C 623.078125 438.015625 668.84375 413.878906 720.203125 413.878906 C 771.566406 413.878906 817.332031 438.015625 846.773438 475.546875 C 835.066406 489.945312 817.226562 499.140625 797.234375 499.140625 C 797.230469 499.140625 643.175781 499.140625 643.175781 499.140625 C 623.183594 499.140625 605.335938 489.945312 593.636719 475.554688 Z M 593.636719 475.546875 " fill-opacity="1" fill-rule="evenodd"/><path fill="#b52446" d="M 966.195312 468.054688 C 963.28125 472.21875 963.121094 477.714844 965.78125 482.046875 C 981.5 507.617188 1009.730469 524.664062 1041.945312 524.664062 L 1196 524.664062 C 1228.210938 524.664062 1256.441406 507.617188 1272.15625 482.046875 C 1274.824219 477.714844 1274.65625 472.21875 1271.746094 468.054688 C 1238.058594 419.882812 1182.167969 388.355469 1118.972656 388.355469 C 1055.777344 388.355469 999.886719 419.882812 966.195312 468.054688 Z M 992.40625 475.546875 C 1021.847656 438.015625 1067.613281 413.878906 1118.972656 413.878906 C 1170.328125 413.878906 1216.09375 438.015625 1245.539062 475.546875 C 1233.835938 489.945312 1215.988281 499.140625 1196 499.140625 C 1196 499.140625 1041.945312 499.140625 1041.945312 499.140625 C 1021.949219 499.140625 1004.105469 489.945312 992.40625 475.554688 Z M 992.40625 475.546875 " fill-opacity="1" fill-rule="evenodd"/></svg>