<svg xmlns="http://www.w3.org/2000/svg" xmlns:xlink="http://www.w3.org/1999/xlink" width="1920" zoomAndPan="magnify" viewBox="0 0 1440 1439.999935" height="1920" preserveAspectRatio="xMidYMid meet" version="1.0"><defs><clipPath id="891142a2f5"><path d="M 554 10.554688 L 886 10.554688 L 886 341 L 554 341 Z M 554 10.554688 " clip-rule="nonzero"/></clipPath><clipPath id="dfe33b49d1"><path d="M 10.554688 554 L 341 554 L 341 886 L 10.554688 886 Z M 10.554688 554 " clip-rule="nonzero"/></clipPath><clipPath id="aebd4948fe"><path d="M 554 1099 L 886 1099 L 886 1429.554688 L 554 1429.554688 Z M 554 1099 " clip-rule="nonzero"/></clipPath><clipPath id="b117a87747"><path d="M 1099 554 L 1429.554688 554 L 1429.554688 886 L 1099 886 Z M 1099 554 " clip-rule="nonzero"/></clipPath></defs><path fill="#b52446" d="M 719.996094 220.128906 C 681.394531 220.128906 649.984375 188.71875 649.984375 150.121094 C 649.984375 111.519531 681.394531 80.109375 719.996094 80.109375 C 758.59375 80.109375 790.003906 111.519531 790.003906 150.121094 C 790.003906 188.71875 758.628906 220.128906 719.996094 220.128906 Z M 719.996094 112.328125 C 699.164062 112.328125 682.234375 129.289062 682.234375 150.089844 C 682.234375 170.886719 699.195312 187.847656 719.996094 187.847656 C 740.828125 187.847656 757.757812 170.886719 757.757812 150.089844 C 757.757812 129.289062 740.828125 112.328125 719.996094 112.328125 Z M 719.996094 112.328125 " fill-opacity="1" fill-rule="nonzero"/><path fill="#b52446" d="M 819.125 303.003906 C 811.449219 303.003906 804.675781 297.523438 803.257812 289.71875 C 796.066406 249.378906 761.046875 220.128906 719.996094 220.128906 C 678.976562 220.128906 643.957031 249.410156 636.699219 289.71875 C 635.121094 298.488281 626.734375 304.328125 617.996094 302.746094 C 609.226562 301.167969 603.390625 292.78125 604.96875 284.042969 C 614.964844 228.320312 663.335938 187.914062 719.996094 187.914062 C 776.6875 187.914062 825.058594 228.351562 834.988281 284.109375 C 836.570312 292.878906 830.699219 301.261719 821.960938 302.8125 C 821.027344 302.941406 820.058594 303.003906 819.125 303.003906 Z M 819.125 303.003906 " fill-opacity="1" fill-rule="nonzero"/><g clip-path="url(#891142a2f5)"><path fill="#b52446" d="M 719.996094 340.796875 C 628.960938 340.796875 554.855469 266.726562 554.855469 175.660156 C 554.855469 84.59375 628.960938 10.554688 719.996094 10.554688 C 811.0625 10.554688 885.132812 84.625 885.132812 175.691406 C 885.132812 266.757812 811.0625 340.796875 719.996094 340.796875 Z M 719.996094 42.800781 C 646.730469 42.800781 587.105469 102.394531 587.105469 175.691406 C 587.105469 248.992188 646.695312 308.582031 719.996094 308.582031 C 793.292969 308.582031 852.886719 248.992188 852.886719 175.691406 C 852.886719 102.394531 793.261719 42.800781 719.996094 42.800781 Z M 719.996094 42.800781 " fill-opacity="1" fill-rule="nonzero"/></g><path fill="#b52446" d="M 175.691406 764.433594 C 137.09375 764.433594 105.683594 733.023438 105.683594 694.421875 C 105.683594 655.824219 137.09375 624.414062 175.691406 624.414062 C 214.292969 624.414062 245.703125 655.824219 245.703125 694.421875 C 245.703125 733.023438 214.292969 764.433594 175.691406 764.433594 Z M 175.691406 656.628906 C 154.859375 656.628906 137.929688 673.589844 137.929688 694.390625 C 137.929688 715.191406 154.894531 732.152344 175.691406 732.152344 C 196.492188 732.152344 213.453125 715.191406 213.453125 694.390625 C 213.453125 673.589844 196.523438 656.628906 175.691406 656.628906 Z M 175.691406 656.628906 " fill-opacity="1" fill-rule="nonzero"/><path fill="#b52446" d="M 274.789062 847.339844 C 267.113281 847.339844 260.339844 841.859375 258.921875 834.054688 C 251.730469 793.710938 216.710938 764.464844 175.660156 764.464844 C 134.640625 764.464844 99.621094 793.746094 92.367188 834.054688 C 90.785156 842.824219 82.402344 848.628906 73.660156 847.082031 C 64.890625 845.5 59.054688 837.117188 60.632812 828.378906 C 70.628906 772.65625 119 732.25 175.660156 732.25 C 232.351562 732.25 280.722656 772.6875 290.652344 828.441406 C 292.203125 837.214844 286.367188 845.597656 277.625 847.144531 C 276.691406 847.242188 275.757812 847.339844 274.789062 847.339844 Z M 274.789062 847.339844 " fill-opacity="1" fill-rule="nonzero"/><g clip-path="url(#dfe33b49d1)"><path fill="#b52446" d="M 175.691406 885.132812 C 84.625 885.132812 10.554688 811.0625 10.554688 719.996094 C 10.554688 628.960938 84.625 554.855469 175.691406 554.855469 C 266.757812 554.855469 340.832031 628.929688 340.832031 719.996094 C 340.796875 811.0625 266.726562 885.132812 175.691406 885.132812 Z M 175.691406 587.105469 C 102.394531 587.105469 42.800781 646.730469 42.800781 719.996094 C 42.800781 793.261719 102.394531 852.886719 175.691406 852.886719 C 248.992188 852.886719 308.582031 793.261719 308.582031 719.996094 C 308.582031 646.730469 248.957031 587.105469 175.691406 587.105469 Z M 175.691406 587.105469 " fill-opacity="1" fill-rule="nonzero"/></g><path fill="#b52446" d="M 719.996094 1308.765625 C 681.394531 1308.765625 649.984375 1277.359375 649.984375 1238.757812 C 649.984375 1200.15625 681.394531 1168.75 719.996094 1168.75 C 758.59375 1168.75 790.003906 1200.15625 790.003906 1238.757812 C 790.003906 1277.359375 758.628906 1308.765625 719.996094 1308.765625 Z M 719.996094 1200.964844 C 699.164062 1200.964844 682.234375 1217.894531 682.234375 1238.726562 C 682.234375 1259.558594 699.195312 1276.488281 719.996094 1276.488281 C 740.828125 1276.488281 757.757812 1259.558594 757.757812 1238.726562 C 757.757812 1217.894531 740.828125 1200.964844 719.996094 1200.964844 Z M 719.996094 1200.964844 " fill-opacity="1" fill-rule="nonzero"/><path fill="#b52446" d="M 819.125 1391.644531 C 811.449219 1391.644531 804.675781 1386.160156 803.257812 1378.355469 C 796.066406 1338.046875 761.046875 1308.765625 719.996094 1308.765625 C 678.976562 1308.765625 643.957031 1338.046875 636.699219 1378.355469 C 635.121094 1387.128906 626.734375 1392.964844 617.996094 1391.382812 C 609.226562 1389.804688 603.390625 1381.421875 604.96875 1372.679688 C 614.964844 1316.988281 663.335938 1276.550781 719.996094 1276.550781 C 776.6875 1276.550781 825.058594 1316.988281 834.988281 1372.746094 C 836.570312 1381.515625 830.699219 1389.902344 821.960938 1391.449219 C 821.027344 1391.578125 820.058594 1391.644531 819.125 1391.644531 Z M 819.125 1391.644531 " fill-opacity="1" fill-rule="nonzero"/><g clip-path="url(#aebd4948fe)"><path fill="#b52446" d="M 719.996094 1429.4375 C 628.960938 1429.4375 554.855469 1355.363281 554.855469 1264.296875 C 554.855469 1173.261719 628.929688 1099.160156 719.996094 1099.160156 C 811.0625 1099.160156 885.132812 1173.230469 885.132812 1264.296875 C 885.132812 1355.363281 811.0625 1429.4375 719.996094 1429.4375 Z M 719.996094 1131.4375 C 646.730469 1131.4375 587.105469 1191.03125 587.105469 1264.332031 C 587.105469 1337.628906 646.730469 1397.1875 719.996094 1397.1875 C 793.261719 1397.1875 852.886719 1337.5625 852.886719 1264.296875 C 852.886719 1191.03125 793.261719 1131.4375 719.996094 1131.4375 Z M 719.996094 1131.4375 " fill-opacity="1" fill-rule="nonzero"/></g><path fill="#b52446" d="M 1264.332031 764.433594 C 1225.730469 764.433594 1194.320312 733.023438 1194.320312 694.421875 C 1194.320312 655.824219 1225.730469 624.414062 1264.332031 624.414062 C 1302.929688 624.414062 1334.339844 655.824219 1334.339844 694.421875 C 1334.339844 733.023438 1302.929688 764.433594 1264.332031 764.433594 Z M 1264.332031 656.628906 C 1243.5 656.628906 1226.570312 673.589844 1226.570312 694.390625 C 1226.570312 715.191406 1243.5 732.152344 1264.332031 732.152344 C 1285.160156 732.152344 1302.089844 715.191406 1302.089844 694.390625 C 1302.089844 673.589844 1285.160156 656.628906 1264.332031 656.628906 Z M 1264.332031 656.628906 " fill-opacity="1" fill-rule="nonzero"/><path fill="#b52446" d="M 1363.425781 847.339844 C 1355.75 847.339844 1348.980469 841.859375 1347.558594 834.054688 C 1340.371094 793.710938 1305.347656 764.464844 1264.296875 764.464844 C 1223.277344 764.464844 1188.257812 793.746094 1181.003906 834.054688 C 1179.421875 842.824219 1171.070312 848.660156 1162.300781 847.082031 C 1153.527344 845.5 1147.691406 837.117188 1149.273438 828.378906 C 1159.269531 772.65625 1207.640625 732.25 1264.296875 732.25 C 1320.988281 732.25 1369.359375 772.6875 1379.292969 828.441406 C 1380.871094 837.214844 1375.003906 845.597656 1366.265625 847.144531 C 1365.328125 847.242188 1364.363281 847.339844 1363.425781 847.339844 Z M 1363.425781 847.339844 " fill-opacity="1" fill-rule="nonzero"/><g clip-path="url(#b117a87747)"><path fill="#b52446" d="M 1264.296875 885.132812 C 1173.265625 885.132812 1099.160156 811.0625 1099.160156 719.996094 C 1099.160156 628.960938 1173.230469 554.855469 1264.296875 554.855469 C 1355.363281 554.855469 1429.4375 628.929688 1429.4375 719.996094 C 1429.4375 811.0625 1355.363281 885.132812 1264.296875 885.132812 Z M 1264.296875 587.105469 C 1191.03125 587.105469 1131.40625 646.695312 1131.40625 719.996094 C 1131.40625 793.292969 1191 852.886719 1264.296875 852.886719 C 1337.597656 852.886719 1397.1875 793.261719 1397.1875 719.996094 C 1397.1875 646.730469 1337.5625 587.105469 1264.296875 587.105469 Z M 1264.296875 587.105469 " fill-opacity="1" fill-rule="nonzero"/></g><path fill="#b52446" d="M 239.800781 507.644531 C 237.347656 507.644531 234.832031 507.066406 232.480469 505.871094 C 224.546875 501.84375 221.386719 492.136719 225.417969 484.203125 C 282.945312 371.273438 378.335938 280.625 494.039062 228.933594 C 496.101562 227.996094 498.359375 227.515625 500.617188 227.515625 C 509.515625 227.515625 516.738281 234.738281 516.738281 243.636719 C 516.738281 250.441406 512.515625 256.277344 506.550781 258.632812 C 397.84375 307.390625 308.230469 392.652344 254.148438 498.8125 C 251.3125 504.453125 245.667969 507.644531 239.800781 507.644531 Z M 239.800781 507.644531 " fill-opacity="1" fill-rule="nonzero"/><path fill="#b52446" d="M 1200.125 507.484375 C 1193.613281 507.484375 1187.96875 503.617188 1185.453125 498.035156 C 1131.019531 391.683594 1041.050781 306.519531 932.085938 258.085938 C 926.25 255.664062 922.121094 249.894531 922.121094 243.1875 C 922.121094 234.285156 929.3125 227.0625 938.246094 227.0625 L 938.277344 227.0625 C 940.535156 227.0625 942.761719 227.546875 944.824219 228.449219 C 1060.914062 279.949219 1156.722656 370.691406 1214.539062 484.007812 C 1215.703125 486.265625 1216.3125 488.78125 1216.3125 491.328125 C 1216.25 500.230469 1209.027344 507.484375 1200.125 507.484375 Z M 1200.125 507.484375 " fill-opacity="1" fill-rule="nonzero"/><path fill="#b52446" d="M 483.558594 1235.984375 C 481.105469 1235.984375 478.65625 1235.4375 476.429688 1234.339844 C 363.597656 1179.132812 271.917969 1086.226562 218.257812 972.71875 C 214.453125 964.65625 217.902344 955.046875 225.933594 951.242188 C 233.996094 947.4375 243.605469 950.886719 247.410156 958.914062 C 297.910156 1065.71875 384.140625 1153.171875 490.265625 1205.1875 C 495.8125 1207.734375 499.679688 1213.347656 499.679688 1219.859375 C 499.648438 1228.792969 492.457031 1235.984375 483.558594 1235.984375 Z M 483.558594 1235.984375 " fill-opacity="1" fill-rule="nonzero"/><path fill="#b52446" d="M 974.425781 1226.828125 C 968.6875 1226.828125 963.109375 1223.730469 960.207031 1218.3125 C 955.980469 1210.476562 958.949219 1200.707031 966.785156 1196.480469 C 1071.492188 1140.308594 1154.722656 1049.207031 1201.125 940.050781 C 1204.609375 931.859375 1214.058594 928.054688 1222.28125 931.503906 C 1230.46875 934.988281 1234.308594 944.46875 1230.824219 952.660156 C 1181.550781 1068.558594 1093.226562 1165.265625 982.070312 1224.890625 C 979.585938 1226.214844 976.972656 1226.828125 974.425781 1226.828125 Z M 974.425781 1226.828125 " fill-opacity="1" fill-rule="nonzero"/><path fill="#b52446" d="M 1200.125 507.453125 C 1198.609375 507.453125 1197.0625 507.226562 1195.546875 506.777344 L 1124.472656 485.816406 C 1115.929688 483.300781 1111.058594 474.335938 1113.574219 465.789062 C 1116.089844 457.242188 1125.054688 452.375 1133.597656 454.890625 L 1190.839844 471.789062 L 1212.316406 420.964844 C 1215.796875 412.773438 1225.246094 408.9375 1233.4375 412.386719 C 1241.628906 415.871094 1245.464844 425.320312 1242.015625 433.507812 L 1214.925781 497.585938 C 1212.410156 503.710938 1206.476562 507.453125 1200.125 507.453125 Z M 1200.125 507.453125 " fill-opacity="1" fill-rule="nonzero"/><path fill="#b52446" d="M 475.722656 325.125 C 473.820312 325.125 471.882812 324.773438 469.980469 324.0625 C 461.660156 320.902344 457.5 311.582031 460.660156 303.261719 L 479.976562 252.632812 L 431.476562 232.769531 C 423.222656 229.382812 419.289062 219.96875 422.675781 211.746094 C 426.0625 203.488281 435.445312 199.554688 443.699219 202.941406 L 506.777344 228.769531 C 514.871094 232.09375 518.835938 241.25 515.742188 249.441406 L 490.8125 314.773438 C 488.332031 321.160156 482.234375 325.125 475.722656 325.125 Z M 475.722656 325.125 " fill-opacity="1" fill-rule="nonzero"/><path fill="#b52446" d="M 208.328125 1046.628906 C 206.425781 1046.628906 204.488281 1046.304688 202.617188 1045.5625 C 194.300781 1042.402344 190.105469 1033.117188 193.234375 1024.765625 L 217.710938 960.109375 C 220.839844 951.851562 230.027344 947.628906 238.316406 950.660156 L 305.875 975.296875 C 314.226562 978.359375 318.546875 987.617188 315.515625 995.96875 C 312.453125 1004.320312 303.199219 1008.640625 294.847656 1005.609375 L 242.25 986.453125 L 223.417969 1036.210938 C 220.96875 1042.660156 214.839844 1046.628906 208.328125 1046.628906 Z M 208.328125 1046.628906 " fill-opacity="1" fill-rule="nonzero"/><path fill="#b52446" d="M 1038.984375 1247.238281 C 1037.375 1247.238281 1035.730469 1246.980469 1034.117188 1246.496094 L 969.523438 1226.085938 C 961.722656 1223.632812 957.011719 1215.734375 958.5625 1207.703125 L 971.558594 1139.4375 C 973.234375 1130.695312 981.648438 1124.957031 990.421875 1126.601562 C 999.160156 1128.277344 1004.902344 1136.695312 1003.253906 1145.464844 L 992.9375 1199.640625 L 1043.855469 1215.734375 C 1052.335938 1218.410156 1057.042969 1227.472656 1054.367188 1235.984375 C 1052.175781 1242.851562 1045.824219 1247.238281 1038.984375 1247.238281 Z M 1038.984375 1247.238281 " fill-opacity="1" fill-rule="nonzero"/><path fill="#b52446" d="M 536.28125 845.082031 C 533.960938 845.082031 531.636719 844.566406 529.445312 843.566406 C 523.769531 840.921875 520.160156 835.214844 520.160156 828.957031 L 520.160156 770.625 C 461.050781 762.722656 415.324219 711.964844 415.324219 650.726562 C 415.324219 584.007812 469.59375 529.769531 536.28125 529.769531 L 717.15625 529.769531 C 783.878906 529.769531 838.117188 584.039062 838.117188 650.726562 C 838.117188 717.414062 783.84375 771.6875 717.15625 771.6875 L 630.121094 771.6875 L 546.632812 841.34375 C 543.667969 843.792969 539.992188 845.082031 536.28125 845.082031 Z M 536.28125 561.984375 C 487.363281 561.984375 447.570312 601.777344 447.570312 650.695312 C 447.570312 699.613281 487.363281 739.40625 536.28125 739.40625 C 545.183594 739.40625 552.40625 746.632812 552.40625 755.53125 L 552.40625 794.488281 L 613.933594 743.148438 C 616.835938 740.730469 620.480469 739.40625 624.253906 739.40625 L 717.15625 739.40625 C 766.078125 739.40625 805.871094 699.613281 805.871094 650.695312 C 805.871094 601.777344 766.078125 561.984375 717.15625 561.984375 Z M 536.28125 561.984375 " fill-opacity="1" fill-rule="nonzero"/><path fill="#b52446" d="M 910.640625 910.253906 C 906.933594 910.253906 903.257812 908.964844 900.320312 906.515625 L 822.671875 841.730469 L 741.761719 841.730469 C 691.585938 841.730469 646.664062 808.191406 632.476562 760.144531 C 629.960938 751.597656 634.828125 742.632812 643.375 740.117188 C 651.921875 737.601562 660.886719 742.472656 663.402344 751.015625 C 673.558594 785.425781 705.773438 809.480469 741.761719 809.480469 L 828.507812 809.480469 C 832.28125 809.480469 835.925781 810.804688 838.828125 813.222656 L 894.519531 859.691406 L 894.519531 825.605469 C 894.519531 816.703125 901.742188 809.480469 910.640625 809.480469 C 932.503906 809.480469 953.046875 800.96875 968.492188 785.554688 C 983.941406 770.109375 992.421875 749.597656 992.421875 727.765625 C 992.421875 682.683594 955.722656 645.988281 910.640625 645.988281 L 819.898438 645.988281 C 810.996094 645.988281 803.773438 638.765625 803.773438 629.863281 C 803.773438 620.964844 810.996094 613.738281 819.898438 613.738281 L 910.640625 613.738281 C 973.523438 613.738281 1024.667969 664.882812 1024.667969 727.765625 C 1024.667969 758.207031 1012.800781 786.84375 991.292969 808.351562 C 973.621094 826.023438 951.113281 837.183594 926.765625 840.632812 L 926.765625 894.128906 C 926.765625 900.386719 923.152344 906.09375 917.476562 908.738281 C 915.316406 909.738281 912.964844 910.253906 910.640625 910.253906 Z M 910.640625 910.253906 " fill-opacity="1" fill-rule="nonzero"/><path fill="#b52446" d="M 552.664062 666.820312 C 548.40625 666.820312 544.28125 665.109375 541.28125 662.109375 C 540.539062 661.371094 539.863281 660.53125 539.25 659.660156 C 538.667969 658.789062 538.183594 657.855469 537.796875 656.886719 C 537.378906 655.886719 537.054688 654.886719 536.863281 653.855469 C 536.636719 652.824219 536.539062 651.757812 536.539062 650.695312 C 536.539062 646.472656 538.28125 642.3125 541.28125 639.3125 C 542.023438 638.570312 542.828125 637.894531 543.730469 637.3125 C 544.601562 636.734375 545.535156 636.214844 546.503906 635.828125 C 547.472656 635.410156 548.472656 635.121094 549.503906 634.894531 C 551.597656 634.476562 553.726562 634.476562 555.824219 634.894531 C 556.855469 635.121094 557.855469 635.410156 558.824219 635.828125 C 559.824219 636.214844 560.757812 636.734375 561.628906 637.3125 C 562.5 637.894531 563.335938 638.570312 564.078125 639.3125 C 567.078125 642.3125 568.789062 646.472656 568.789062 650.695312 C 568.789062 651.757812 568.691406 652.824219 568.464844 653.855469 C 568.269531 654.886719 567.949219 655.886719 567.5625 656.886719 C 567.144531 657.855469 566.660156 658.789062 566.078125 659.660156 C 565.5 660.53125 564.820312 661.371094 564.078125 662.109375 C 563.335938 662.851562 562.5 663.53125 561.628906 664.109375 C 560.757812 664.691406 559.824219 665.207031 558.824219 665.59375 C 557.855469 666.011719 556.855469 666.304688 555.824219 666.527344 C 554.792969 666.722656 553.726562 666.820312 552.664062 666.820312 Z M 552.664062 666.820312 " fill-opacity="1" fill-rule="nonzero"/><path fill="#b52446" d="M 626.703125 666.820312 C 625.671875 666.820312 624.609375 666.722656 623.574219 666.527344 C 622.542969 666.304688 621.511719 666.011719 620.542969 665.59375 C 619.578125 665.207031 618.640625 664.691406 617.769531 664.109375 C 616.902344 663.53125 616.0625 662.851562 615.320312 662.109375 C 614.578125 661.371094 613.902344 660.53125 613.320312 659.660156 C 612.742188 658.789062 612.226562 657.855469 611.835938 656.886719 C 611.417969 655.886719 611.128906 654.886719 610.902344 653.855469 C 610.710938 652.824219 610.578125 651.761719 610.578125 650.695312 C 610.578125 646.472656 612.320312 642.3125 615.320312 639.3125 C 616.0625 638.570312 616.902344 637.894531 617.769531 637.3125 C 618.640625 636.734375 619.578125 636.214844 620.542969 635.828125 C 621.511719 635.410156 622.542969 635.121094 623.574219 634.894531 C 628.800781 633.863281 634.378906 635.570312 638.121094 639.3125 C 641.117188 642.3125 642.828125 646.472656 642.828125 650.695312 C 642.828125 651.761719 642.730469 652.824219 642.535156 653.855469 C 642.3125 654.886719 642.019531 655.886719 641.601562 656.886719 C 641.214844 657.855469 640.699219 658.789062 640.117188 659.660156 C 639.539062 660.53125 638.859375 661.371094 638.121094 662.109375 C 635.121094 665.109375 630.960938 666.820312 626.703125 666.820312 Z M 626.703125 666.820312 " fill-opacity="1" fill-rule="nonzero"/><path fill="#b52446" d="M 700.777344 666.820312 C 699.710938 666.820312 698.648438 666.722656 697.617188 666.527344 C 696.582031 666.304688 695.582031 666.011719 694.585938 665.59375 C 693.617188 665.207031 692.683594 664.691406 691.8125 664.109375 C 690.941406 663.53125 690.101562 662.851562 689.359375 662.109375 C 686.359375 659.113281 684.652344 654.953125 684.652344 650.695312 C 684.652344 649.664062 684.75 648.597656 684.972656 647.566406 C 685.167969 646.535156 685.492188 645.503906 685.878906 644.535156 C 686.296875 643.570312 686.78125 642.632812 687.359375 641.761719 C 687.941406 640.890625 688.617188 640.054688 689.359375 639.3125 C 690.101562 638.570312 690.941406 637.894531 691.8125 637.3125 C 692.679688 636.734375 693.617188 636.214844 694.585938 635.828125 C 695.582031 635.410156 696.582031 635.121094 697.617188 634.894531 C 699.710938 634.476562 701.839844 634.476562 703.9375 634.894531 C 704.9375 635.121094 705.96875 635.410156 706.933594 635.828125 C 707.902344 636.214844 708.835938 636.734375 709.707031 637.3125 C 710.609375 637.894531 711.417969 638.570312 712.160156 639.3125 C 712.902344 640.054688 713.578125 640.890625 714.160156 641.761719 C 714.769531 642.632812 715.253906 643.570312 715.675781 644.535156 C 716.0625 645.503906 716.382812 646.535156 716.578125 647.566406 C 716.800781 648.597656 716.898438 649.664062 716.898438 650.695312 C 716.898438 654.953125 715.15625 659.113281 712.160156 662.109375 C 711.417969 662.851562 710.609375 663.53125 709.707031 664.109375 C 708.835938 664.691406 707.902344 665.207031 706.933594 665.59375 C 705.96875 666.011719 704.9375 666.304688 703.9375 666.527344 C 702.871094 666.722656 701.808594 666.820312 700.777344 666.820312 Z M 700.777344 666.820312 " fill-opacity="1" fill-rule="nonzero"/></svg>