<svg xmlns="http://www.w3.org/2000/svg" xmlns:xlink="http://www.w3.org/1999/xlink" width="500" zoomAndPan="magnify" viewBox="0 0 375 374.999991" height="500" preserveAspectRatio="xMidYMid meet" version="1.0"><defs><clipPath id="076fce6ef3"><path d="M 2.1875 27.4375 L 372.6875 27.4375 L 372.6875 347.6875 L 2.1875 347.6875 Z M 2.1875 27.4375 " clip-rule="nonzero"/></clipPath></defs><g clip-path="url(#076fce6ef3)"><path fill="#751133" d="M 347.433594 130.003906 L 351.929688 125.5 C 356.863281 120.566406 356.863281 112.535156 351.929688 107.601562 L 335.960938 91.621094 C 331.027344 86.683594 323.003906 86.683594 318.074219 91.621094 L 313.574219 96.121094 C 297.324219 84.691406 278.519531 76.667969 258.199219 73.105469 L 258.199219 60.566406 L 270.640625 60.566406 C 277.613281 60.566406 283.289062 54.886719 283.289062 47.90625 L 283.289062 40.125 C 283.289062 33.144531 277.613281 27.46875 270.640625 27.46875 L 197.875 27.46875 C 190.898438 27.46875 185.226562 33.144531 185.226562 40.125 L 185.226562 47.90625 C 185.226562 54.886719 190.898438 60.566406 197.875 60.566406 L 210.316406 60.566406 L 210.316406 73.105469 C 189.992188 76.671875 171.1875 84.691406 154.941406 96.121094 L 150.441406 91.617188 C 145.507812 86.683594 137.484375 86.683594 132.550781 91.617188 L 116.582031 107.597656 C 111.648438 112.535156 111.648438 120.566406 116.582031 125.5 L 121.082031 130.003906 C 105.289062 152.488281 96 179.867188 96 209.378906 C 96 285.664062 158.023438 347.730469 234.253906 347.730469 C 310.488281 347.730469 372.511719 285.664062 372.511719 209.378906 C 372.511719 179.867188 363.226562 152.488281 347.433594 130.003906 Z M 325.492188 99.042969 C 326.332031 98.199219 327.703125 98.199219 328.542969 99.042969 L 344.511719 115.023438 C 345.355469 115.863281 345.355469 117.234375 344.511719 118.078125 L 341.023438 121.570312 C 335.308594 114.628906 328.9375 108.25 322 102.535156 Z M 195.714844 47.90625 L 195.714844 40.125 C 195.714844 38.933594 196.683594 37.964844 197.875 37.964844 L 270.640625 37.964844 C 271.832031 37.964844 272.800781 38.933594 272.800781 40.125 L 272.800781 47.90625 C 272.800781 49.097656 271.832031 50.066406 270.640625 50.066406 L 197.875 50.066406 C 196.683594 50.066406 195.714844 49.097656 195.714844 47.90625 Z M 220.804688 60.566406 L 247.707031 60.566406 L 247.707031 71.679688 C 243.28125 71.25 238.796875 71.023438 234.257812 71.023438 C 229.71875 71.023438 225.234375 71.25 220.804688 71.679688 Z M 124 118.078125 C 123.160156 117.234375 123.160156 115.867188 124 115.023438 L 139.96875 99.042969 C 140.8125 98.199219 142.183594 98.199219 143.023438 99.042969 L 146.515625 102.535156 C 139.578125 108.25 133.203125 114.628906 127.492188 121.570312 Z M 234.257812 337.234375 C 163.808594 337.234375 106.492188 279.878906 106.492188 209.378906 C 106.492188 138.878906 163.808594 81.519531 234.257812 81.519531 C 304.707031 81.519531 362.023438 138.875 362.023438 209.378906 C 362.023438 279.878906 304.707031 337.234375 234.257812 337.234375 Z M 234.257812 100.394531 C 174.207031 100.394531 125.351562 149.285156 125.351562 209.378906 C 125.351562 269.472656 174.207031 318.363281 234.257812 318.363281 C 294.308594 318.363281 343.164062 269.472656 343.164062 209.378906 C 343.164062 149.285156 294.308594 100.394531 234.257812 100.394531 Z M 234.257812 307.863281 C 179.992188 307.863281 135.839844 263.683594 135.839844 209.378906 C 135.839844 155.070312 179.992188 110.890625 234.257812 110.890625 C 288.523438 110.890625 332.671875 155.070312 332.671875 209.378906 C 332.671875 263.683594 288.523438 307.863281 234.257812 307.863281 Z M 283.085938 135.242188 L 275.65625 148.121094 C 274.683594 149.804688 272.921875 150.746094 271.109375 150.746094 C 270.21875 150.746094 269.316406 150.519531 268.492188 150.039062 C 265.980469 148.589844 265.121094 145.382812 266.570312 142.871094 L 274 129.992188 C 275.449219 127.480469 278.65625 126.621094 281.167969 128.070312 C 283.675781 129.519531 284.535156 132.730469 283.085938 135.242188 Z M 293.550781 175.121094 C 292.101562 172.609375 292.960938 169.398438 295.472656 167.949219 L 308.339844 160.511719 C 310.851562 159.0625 314.058594 159.925781 315.503906 162.433594 C 316.953125 164.945312 316.09375 168.15625 313.585938 169.605469 L 300.714844 177.039062 C 299.890625 177.519531 298.988281 177.746094 298.097656 177.746094 C 296.285156 177.746094 294.523438 176.804688 293.550781 175.121094 Z M 328.074219 209.378906 C 328.074219 212.277344 325.726562 214.625 322.832031 214.625 L 307.96875 214.625 C 305.074219 214.625 302.722656 212.277344 302.722656 209.378906 C 302.722656 206.480469 305.074219 204.128906 307.96875 204.128906 L 322.832031 204.128906 C 325.726562 204.128906 328.074219 206.480469 328.074219 209.378906 Z M 315.503906 256.320312 C 314.535156 258.003906 312.769531 258.945312 310.957031 258.945312 C 310.070312 258.945312 309.167969 258.71875 308.339844 258.242188 L 295.472656 250.804688 C 292.960938 249.355469 292.101562 246.144531 293.550781 243.636719 C 295 241.125 298.207031 240.265625 300.714844 241.714844 L 313.585938 249.148438 C 316.09375 250.601562 316.953125 253.808594 315.503906 256.320312 Z M 283.085938 283.515625 C 284.535156 286.023438 283.675781 289.234375 281.167969 290.683594 C 280.339844 291.164062 279.4375 291.386719 278.546875 291.386719 C 276.734375 291.386719 274.972656 290.449219 274 288.761719 L 266.570312 275.882812 C 265.121094 273.375 265.980469 270.164062 268.492188 268.714844 C 271 267.265625 274.207031 268.125 275.65625 270.636719 Z M 239.503906 283.140625 L 239.503906 298.011719 C 239.503906 300.914062 237.152344 303.261719 234.257812 303.261719 C 231.359375 303.261719 229.011719 300.914062 229.011719 298.011719 L 229.011719 283.140625 C 229.011719 280.242188 231.359375 277.894531 234.257812 277.894531 C 237.152344 277.894531 239.503906 280.242188 239.503906 283.140625 Z M 201.945312 275.882812 L 194.515625 288.761719 C 193.542969 290.449219 191.777344 291.386719 189.964844 291.386719 C 189.074219 291.386719 188.175781 291.164062 187.347656 290.683594 C 184.839844 289.234375 183.980469 286.023438 185.429688 283.515625 L 192.859375 270.636719 C 194.308594 268.125 197.515625 267.265625 200.023438 268.714844 C 202.53125 270.164062 203.390625 273.375 201.945312 275.882812 Z M 174.964844 243.636719 C 176.410156 246.144531 175.550781 249.355469 173.042969 250.804688 L 160.175781 258.242188 C 159.347656 258.71875 158.445312 258.945312 157.554688 258.945312 C 155.742188 258.945312 153.980469 258.003906 153.007812 256.320312 C 151.5625 253.808594 152.421875 250.601562 154.929688 249.148438 L 167.796875 241.714844 C 170.308594 240.265625 173.515625 241.125 174.964844 243.636719 Z M 160.546875 214.625 L 145.683594 214.625 C 142.789062 214.625 140.441406 212.277344 140.441406 209.378906 C 140.441406 206.480469 142.789062 204.128906 145.683594 204.128906 L 160.546875 204.128906 C 163.441406 204.128906 165.789062 206.480469 165.789062 209.378906 C 165.789062 212.277344 163.441406 214.625 160.546875 214.625 Z M 174.964844 175.121094 C 173.992188 176.804688 172.230469 177.746094 170.417969 177.746094 C 169.527344 177.746094 168.625 177.519531 167.796875 177.039062 L 154.929688 169.605469 C 152.421875 168.15625 151.5625 164.945312 153.007812 162.433594 C 154.457031 159.921875 157.667969 159.0625 160.175781 160.511719 L 173.042969 167.949219 C 175.550781 169.398438 176.410156 172.609375 174.964844 175.121094 Z M 201.945312 142.871094 C 203.390625 145.382812 202.53125 148.589844 200.023438 150.039062 C 199.199219 150.519531 198.296875 150.746094 197.40625 150.746094 C 195.59375 150.746094 193.832031 149.804688 192.859375 148.121094 L 185.429688 135.242188 C 183.980469 132.730469 184.839844 129.519531 187.347656 128.070312 C 189.859375 126.621094 193.066406 127.480469 194.511719 129.992188 Z M 239.503906 195.394531 L 239.503906 155.902344 C 239.503906 153.003906 237.152344 150.652344 234.257812 150.652344 C 231.359375 150.652344 229.011719 153.003906 229.011719 155.902344 L 229.011719 195.394531 C 223.355469 197.527344 219.316406 202.980469 219.316406 209.378906 C 219.316406 217.621094 226.019531 224.332031 234.257812 224.332031 C 242.496094 224.332031 249.199219 217.621094 249.199219 209.378906 C 249.199219 202.980469 245.15625 197.527344 239.503906 195.394531 Z M 234.257812 213.832031 C 231.800781 213.832031 229.804688 211.835938 229.804688 209.378906 C 229.804688 206.921875 231.800781 204.921875 234.257812 204.921875 C 236.710938 204.921875 238.710938 206.921875 238.710938 209.378906 C 238.710938 211.835938 236.710938 213.832031 234.257812 213.832031 Z M 229.011719 135.613281 L 229.011719 120.742188 C 229.011719 117.839844 231.359375 115.492188 234.257812 115.492188 C 237.152344 115.492188 239.503906 117.839844 239.503906 120.742188 L 239.503906 135.613281 C 239.503906 138.511719 237.152344 140.863281 234.257812 140.863281 C 231.359375 140.863281 229.011719 138.511719 229.011719 135.613281 Z M 21.953125 192.4375 C 21.953125 189.539062 24.300781 187.1875 27.199219 187.1875 L 76.578125 187.1875 C 79.472656 187.1875 81.824219 189.539062 81.824219 192.4375 C 81.824219 195.335938 79.472656 197.6875 76.578125 197.6875 L 27.199219 197.6875 C 24.300781 197.6875 21.953125 195.335938 21.953125 192.4375 Z M 89.539062 158.554688 C 89.539062 161.457031 87.191406 163.804688 84.292969 163.804688 L 41.222656 163.804688 C 38.328125 163.804688 35.980469 161.457031 35.980469 158.554688 C 35.980469 155.65625 38.328125 153.308594 41.222656 153.308594 L 84.292969 153.308594 C 87.191406 153.308594 89.539062 155.65625 89.539062 158.554688 Z M 76.871094 231.566406 L 7.609375 231.566406 C 4.714844 231.566406 2.363281 229.21875 2.363281 226.316406 C 2.363281 223.417969 4.714844 221.070312 7.609375 221.070312 L 76.871094 221.070312 C 79.769531 221.070312 82.117188 223.417969 82.117188 226.316406 C 82.117188 229.21875 79.769531 231.566406 76.871094 231.566406 Z M 89.539062 260.199219 C 89.539062 263.097656 87.191406 265.449219 84.292969 265.449219 L 38.347656 265.449219 C 35.453125 265.449219 33.101562 263.097656 33.101562 260.199219 C 33.101562 257.300781 35.453125 254.949219 38.347656 254.949219 L 84.292969 254.949219 C 87.191406 254.949219 89.539062 257.300781 89.539062 260.199219 Z M 89.539062 260.199219 " fill-opacity="1" fill-rule="nonzero"/></g></svg>