<svg xmlns="http://www.w3.org/2000/svg" xmlns:xlink="http://www.w3.org/1999/xlink" width="1080" zoomAndPan="magnify" viewBox="0 0 810 809.999993" height="1080" preserveAspectRatio="xMidYMid meet" version="1.0"><path fill="#fef4e6" d="M 803.988281 174.761719 C 806.324219 171.507812 802.878906 167.308594 799.144531 168.753906 C 772.609375 179.042969 744.878906 185.984375 716.59375 189.402344 C 748.085938 170.582031 772.394531 141.933594 785.871094 108.015625 C 787.242188 104.558594 783.46875 101.476562 780.214844 103.273438 C 750.945312 119.441406 719.371094 131.085938 686.578125 137.792969 C 685.207031 138.070312 683.792969 137.605469 682.828125 136.585938 C 658.21875 110.613281 625.820312 93.320312 590.503906 87.34375 C 554.445312 81.242188 517.382812 87.285156 485.128906 104.519531 C 452.875 121.757812 427.25 149.214844 412.277344 182.589844 C 398.042969 214.320312 394.203125 249.6875 401.226562 283.65625 C 401.769531 286.292969 399.707031 288.78125 397.019531 288.617188 C 333.214844 284.652344 270.871094 267.675781 213.832031 238.710938 C 156.941406 209.820312 106.558594 169.628906 65.761719 120.617188 C 63.949219 118.441406 60.519531 118.722656 59.199219 121.226562 C 46.503906 145.324219 39.855469 172.179688 39.875 199.476562 C 39.824219 226.644531 46.488281 253.410156 59.28125 277.378906 C 72.070312 301.347656 90.589844 321.785156 113.1875 336.863281 C 89.222656 336.210938 65.726562 330.285156 44.355469 319.542969 C 41.601562 318.15625 38.300781 320.128906 38.441406 323.207031 C 40.109375 359.035156 53.257812 395 76.019531 422.601562 C 100.242188 451.960938 133.859375 472.058594 171.191406 479.488281 C 156.820312 483.863281 141.902344 486.167969 126.882812 486.335938 C 118.707031 486.242188 110.546875 485.640625 102.453125 484.53125 C 99.449219 484.121094 97 486.972656 98.050781 489.816406 C 109.183594 519.929688 128.855469 546.210938 154.71875 565.394531 C 182.367188 585.902344 215.722656 597.28125 250.140625 597.941406 C 192.023438 643.679688 120.269531 668.644531 46.320312 668.851562 C 38.722656 668.875 31.125 668.628906 23.546875 668.113281 C 19.277344 667.824219 17.316406 673.511719 20.996094 675.695312 C 93.046875 718.464844 175.402344 741.070312 259.40625 740.96875 C 321.425781 741.613281 382.949219 729.890625 440.390625 706.484375 C 497.832031 683.074219 550.03125 648.460938 593.945312 604.648438 C 637.859375 560.835938 672.605469 508.714844 696.152344 451.320312 C 719.699219 393.929688 731.578125 332.417969 731.09375 270.386719 L 731.09375 251.054688 C 731.09375 249.78125 731.691406 248.585938 732.707031 247.820312 C 760.03125 227.183594 784.058594 202.550781 803.988281 174.761719 Z M 803.988281 174.761719 " fill-opacity="1" fill-rule="nonzero"/></svg>