<svg xmlns="http://www.w3.org/2000/svg" xmlns:xlink="http://www.w3.org/1999/xlink" width="1080" zoomAndPan="magnify" viewBox="0 0 810 809.999993" height="1080" preserveAspectRatio="xMidYMid meet" version="1.0"><defs><clipPath id="65f6f9cb93"><path d="M 5 111 L 810 111 L 810 702.214844 L 5 702.214844 Z M 5 111 " clip-rule="nonzero"/></clipPath></defs><g clip-path="url(#65f6f9cb93)"><path fill="#fef4e6" d="M 212.054688 119.21875 C 347.132812 108.660156 482.824219 108.660156 617.902344 119.21875 L 708.636719 126.3125 C 759.175781 130.261719 800.523438 168.109375 808.875 218.066406 C 829.777344 343.0625 829.777344 470.664062 808.875 595.660156 C 800.523438 645.617188 759.175781 683.460938 708.636719 687.414062 L 617.902344 694.507812 C 482.824219 705.0625 347.132812 705.0625 212.054688 694.507812 L 121.316406 687.414062 C 70.777344 683.460938 29.433594 645.617188 21.078125 595.660156 C 0.175781 470.664062 0.175781 343.0625 21.078125 218.066406 C 29.433594 168.109375 70.777344 130.261719 121.316406 126.3125 Z M 333.988281 506.800781 L 333.988281 306.921875 C 333.988281 297.488281 344.289062 291.660156 352.382812 296.515625 L 519.097656 396.457031 C 526.960938 401.171875 526.960938 412.554688 519.097656 417.269531 L 352.382812 517.210938 C 344.289062 522.066406 333.988281 516.238281 333.988281 506.800781 Z M 333.988281 506.800781 " fill-opacity="1" fill-rule="evenodd"/></g></svg>