<svg xmlns="http://www.w3.org/2000/svg" xmlns:xlink="http://www.w3.org/1999/xlink" width="500" zoomAndPan="magnify" viewBox="0 0 375 374.999991" height="500" preserveAspectRatio="xMidYMid meet" version="1.0"><defs><clipPath id="b3a8ae8b43"><path d="M 113 2.535156 L 357.601562 2.535156 L 357.601562 248 L 113 248 Z M 113 2.535156 " clip-rule="nonzero"/></clipPath><clipPath id="f62b0ae6ed"><path d="M 17.101562 238 L 326 238 L 326 372.285156 L 17.101562 372.285156 Z M 17.101562 238 " clip-rule="nonzero"/></clipPath></defs><g clip-path="url(#b3a8ae8b43)"><path fill="#751133" d="M 235.351562 247.742188 C 303.039062 247.742188 357.601562 192.746094 357.601562 125.441406 C 357.601562 57.726562 303.039062 2.734375 235.351562 2.734375 C 167.660156 2.734375 113.097656 57.726562 113.097656 125.03125 C 113.097656 192.746094 167.660156 247.742188 235.351562 247.742188 Z M 235.351562 87.273438 C 224.273438 87.273438 214.839844 78.246094 214.839844 66.753906 C 214.839844 55.675781 223.863281 46.234375 235.351562 46.234375 C 246.425781 46.234375 255.863281 55.261719 255.863281 66.753906 C 255.863281 78.246094 246.425781 87.273438 235.351562 87.273438 Z M 215.660156 93.019531 C 220.992188 97.125 227.964844 99.585938 235.351562 99.585938 C 242.734375 99.585938 249.710938 97.125 255.042969 93.019531 C 262.425781 96.714844 268.582031 102.050781 269.402344 112.71875 L 269.402344 116.824219 C 254.222656 119.695312 242.734375 132.828125 242.734375 148.835938 C 242.734375 154.992188 244.375 160.734375 247.246094 165.25 C 242.734375 167.710938 238.632812 170.996094 235.351562 175.921875 C 232.070312 170.996094 227.554688 167.710938 223.453125 165.25 C 226.324219 160.324219 227.964844 154.578125 227.964844 148.835938 C 227.964844 132.828125 216.480469 119.695312 201.300781 116.824219 L 201.300781 112.71875 C 202.121094 101.636719 208.273438 96.714844 215.660156 93.019531 Z M 309.605469 206.289062 C 291.554688 223.117188 267.761719 233.375 241.503906 235.019531 L 241.503906 194.800781 C 242.324219 183.71875 248.480469 178.382812 255.863281 174.691406 C 261.195312 178.792969 268.171875 181.257812 275.554688 181.257812 C 282.9375 181.257812 289.914062 178.792969 295.246094 174.691406 C 302.628906 178.382812 308.785156 183.71875 309.605469 194.390625 Z M 275.554688 169.355469 C 264.476562 169.355469 255.042969 160.324219 255.042969 148.835938 C 255.042969 137.753906 264.066406 128.316406 275.554688 128.316406 C 286.632812 128.316406 296.066406 137.34375 296.066406 148.835938 C 296.066406 160.324219 286.632812 169.355469 275.554688 169.355469 Z M 195.148438 128.726562 C 206.222656 128.726562 215.660156 137.753906 215.660156 149.246094 C 215.660156 160.324219 206.632812 169.765625 195.148438 169.765625 C 184.070312 169.765625 174.636719 160.734375 174.636719 149.246094 C 174.636719 137.753906 184.070312 128.726562 195.148438 128.726562 Z M 175.457031 175.101562 C 180.789062 179.203125 187.761719 181.667969 195.148438 181.667969 C 202.53125 181.667969 209.503906 179.203125 214.839844 175.101562 C 222.222656 178.792969 228.375 184.128906 229.199219 195.210938 L 229.199219 235.429688 C 202.941406 233.785156 179.148438 223.527344 161.097656 206.699219 L 161.097656 195.210938 C 161.917969 184.128906 168.070312 178.792969 175.457031 175.101562 Z M 235.351562 15.042969 C 296.066406 15.042969 345.296875 64.292969 345.296875 125.03125 C 345.296875 150.886719 336.269531 174.277344 321.5 193.15625 C 319.859375 178.382812 311.65625 170.175781 303.449219 165.660156 C 306.324219 160.734375 307.964844 154.992188 307.964844 149.246094 C 307.964844 133.238281 296.476562 120.105469 281.296875 117.234375 L 281.296875 112.71875 C 281.296875 112.71875 281.296875 112.308594 281.296875 112.308594 C 280.066406 97.125 271.453125 88.917969 263.246094 83.992188 C 266.117188 79.066406 267.761719 73.320312 267.761719 67.574219 C 267.761719 49.519531 252.992188 34.742188 234.941406 34.742188 C 216.890625 34.742188 202.121094 49.519531 202.121094 67.574219 C 202.121094 73.730469 203.761719 79.476562 206.632812 83.992188 C 198.019531 88.917969 189.8125 97.125 188.582031 112.308594 C 188.582031 112.308594 188.582031 112.71875 188.582031 112.71875 L 188.582031 117.234375 C 173.40625 120.105469 161.917969 133.238281 161.917969 149.246094 C 161.917969 155.402344 163.558594 161.144531 166.429688 165.660156 C 158.226562 170.585938 149.609375 178.382812 148.378906 193.15625 C 133.609375 174.277344 124.585938 150.886719 124.585938 125.03125 C 125.40625 64.292969 174.636719 15.042969 235.351562 15.042969 Z M 235.351562 15.042969 " fill-opacity="1" fill-rule="nonzero"/></g><g clip-path="url(#f62b0ae6ed)"><path fill="#751133" d="M 289.914062 269.492188 L 209.503906 301.09375 C 209.917969 287.550781 203.351562 271.542969 189.402344 262.515625 L 174.226562 252.664062 C 152.480469 238.300781 124.585938 238.300781 97.921875 238.300781 L 23.257812 238.300781 C 19.972656 238.300781 17.101562 241.175781 17.101562 244.457031 L 17.101562 333.101562 C 17.101562 336.386719 19.972656 339.257812 23.257812 339.257812 L 76.585938 339.257812 C 97.101562 339.257812 99.972656 340.902344 127.046875 357.316406 L 127.867188 357.726562 C 144.277344 367.578125 156.175781 372.089844 168.070312 372.089844 C 178.328125 372.089844 188.582031 368.808594 201.300781 362.652344 L 307.964844 313.40625 C 324.375 305.605469 328.476562 290.421875 323.964844 279.75 C 319.859375 269.902344 307.554688 262.515625 289.914062 269.492188 Z M 29.410156 250.613281 L 70.433594 250.613281 L 70.433594 326.949219 L 29.410156 326.949219 Z M 303.039062 302.324219 L 196.378906 351.570312 C 171.761719 363.0625 161.097656 363.472656 134.433594 347.058594 L 133.609375 346.648438 C 108.585938 331.460938 102.023438 327.359375 83.152344 326.949219 L 83.152344 250.613281 L 98.332031 250.613281 C 124.585938 250.613281 149.199219 250.613281 168.070312 262.925781 L 183.25 272.773438 C 196.789062 281.804688 199.660156 299.449219 195.96875 308.480469 C 195.558594 309.300781 195.148438 310.121094 194.738281 310.941406 C 188.582031 318.738281 177.507812 312.582031 174.226562 310.53125 L 132.789062 283.445312 C 129.917969 281.394531 126.226562 282.214844 124.175781 285.085938 C 122.125 287.960938 122.945312 291.652344 125.816406 293.707031 L 167.25 320.792969 C 173.816406 324.894531 180.378906 327.359375 186.53125 327.359375 C 193.507812 327.359375 200.070312 324.484375 204.171875 318.328125 C 204.582031 317.507812 205.402344 316.6875 205.8125 315.867188 L 294.425781 280.984375 C 303.039062 277.699219 310.425781 278.929688 312.886719 284.675781 C 315.347656 290.011719 312.476562 297.808594 303.039062 302.324219 Z M 303.039062 302.324219 " fill-opacity="1" fill-rule="nonzero"/></g></svg>